<svg xmlns="http://www.w3.org/2000/svg" xmlns:xlink="http://www.w3.org/1999/xlink" viewBox="0 0 755.01 575.06"><defs><linearGradient id="linear-gradient" x1="1746.49" y1="-146.19" x2="1970.56" y2="-146.19" gradientTransform="matrix(0, -1, -1, 0, 231.33, 2289.66)" gradientUnits="userSpaceOnUse"><stop offset="0" stop-color="#585a5b"/><stop offset="0.32" stop-color="#e7e7e8"/><stop offset="0.37" stop-color="#dbdbdd"/><stop offset="0.45" stop-color="#babbbe"/><stop offset="0.47" stop-color="#b4b5b9"/><stop offset="0.66" stop-color="#96979b"/><stop offset="0.8" stop-color="#757578"/><stop offset="0.92" stop-color="#606062"/><stop offset="1" stop-color="#58585a"/></linearGradient><linearGradient id="linear-gradient-2" x1="265.48" y1="311.89" x2="489.55" y2="311.89" gradientTransform="matrix(1, 0, 0, 1, 0, 0)" xlink:href="#linear-gradient"/><linearGradient id="linear-gradient-3" x1="388.62" y1="58.45" x2="388.62" y2="98.65" gradientTransform="matrix(1, 0, 0, 1, 0, 0)" xlink:href="#linear-gradient"/><linearGradient id="linear-gradient-4" x1="4158.76" y1="-3167.25" x2="4158.76" y2="-3128.38" gradientTransform="translate(-3786.34 3289.86)" xlink:href="#linear-gradient"/><radialGradient id="radial-gradient" cx="372.42" cy="78.65" r="78.65" gradientUnits="userSpaceOnUse"><stop offset="0" stop-color="#e7e7e8"/><stop offset="0.15" stop-color="#dbdbdc"/><stop offset="0.41" stop-color="#bababd"/><stop offset="0.66" stop-color="#96979b"/><stop offset="0.8" stop-color="#757578"/><stop offset="0.92" stop-color="#606062"/><stop offset="1" stop-color="#58585a"/></radialGradient><radialGradient id="radial-gradient-2" cx="561.45" cy="76.8" r="48.99" xlink:href="#radial-gradient"/><radialGradient id="radial-gradient-3" cx="185.72" cy="76.8" r="48.99" xlink:href="#radial-gradient"/><linearGradient id="linear-gradient-5" x1="274.11" y1="211.51" x2="470.77" y2="211.51" gradientTransform="matrix(1, 0, 0, 1, 0, 0)" xlink:href="#linear-gradient"/><linearGradient id="linear-gradient-6" x1="297.94" y1="192.15" x2="447.16" y2="192.15" gradientTransform="matrix(1, 0, 0, 1, 0, 0)" xlink:href="#linear-gradient"/><linearGradient id="linear-gradient-7" x1="336.34" y1="177.57" x2="406.45" y2="177.57" gradientTransform="matrix(1, 0, 0, 1, 0, 0)" xlink:href="#linear-gradient"/><linearGradient id="linear-gradient-8" x1="-3124.28" y1="-7355.94" x2="-2838.4" y2="-7355.94" gradientTransform="translate(-6631.96 3410.81) rotate(90)" gradientUnits="userSpaceOnUse"><stop offset="0" stop-color="#58585a"/><stop offset="0.08" stop-color="#606062"/><stop offset="0.2" stop-color="#757578"/><stop offset="0.34" stop-color="#96979b"/><stop offset="0.53" stop-color="#b4b5b9"/><stop offset="0.55" stop-color="#babbbe"/><stop offset="0.63" stop-color="#dbdbdd"/><stop offset="0.68" stop-color="#e7e7e8"/><stop offset="1" stop-color="#585a5b"/></linearGradient><linearGradient id="linear-gradient-9" x1="-206.25" y1="1170.31" x2="-206.25" y2="1198.86" gradientTransform="translate(895.5 -641.77)" gradientUnits="userSpaceOnUse"><stop offset="0" stop-color="#414042"/><stop offset="0.51" stop-color="#6d6e71"/><stop offset="0.99" stop-color="#414042"/></linearGradient><radialGradient id="radial-gradient-4" cx="-225.15" cy="1184.39" r="19.97" gradientTransform="translate(895.5 -641.77)" gradientUnits="userSpaceOnUse"><stop offset="0" stop-color="#6d6e71"/><stop offset="1" stop-color="#414042"/></radialGradient><linearGradient id="linear-gradient-10" x1="-206.25" y1="1096.02" x2="-206.25" y2="1124.57" xlink:href="#linear-gradient-9"/><radialGradient id="radial-gradient-5" cx="-225.15" cy="1110.1" r="19.97" xlink:href="#radial-gradient-4"/><linearGradient id="linear-gradient-11" x1="-206.25" y1="1021.73" x2="-206.25" y2="1050.28" xlink:href="#linear-gradient-9"/><radialGradient id="radial-gradient-6" cx="-225.15" cy="1035.81" r="19.97" xlink:href="#radial-gradient-4"/><linearGradient id="linear-gradient-12" x1="-206.25" y1="947.44" x2="-206.25" y2="975.99" xlink:href="#linear-gradient-9"/><radialGradient id="radial-gradient-7" cx="-225.15" cy="961.52" r="19.97" xlink:href="#radial-gradient-4"/><linearGradient id="linear-gradient-13" x1="-3124.28" y1="-11608.48" x2="-2838.4" y2="-11608.48" gradientTransform="matrix(0, 1, 1, 0, 11639.53, 3410.81)" xlink:href="#linear-gradient-8"/><linearGradient id="linear-gradient-14" x1="4046.3" y1="1170.31" x2="4046.3" y2="1198.86" gradientTransform="matrix(1, 0, 0, -1, -3980.54, 1726.89)" xlink:href="#linear-gradient-9"/><radialGradient id="radial-gradient-8" cx="4027.4" cy="1184.39" r="19.97" gradientTransform="matrix(-1, 0, 0, 1, 4112.06, -641.77)" xlink:href="#radial-gradient-4"/><linearGradient id="linear-gradient-15" x1="4046.3" y1="1096.02" x2="4046.3" y2="1124.57" gradientTransform="matrix(1, 0, 0, -1, -3980.54, 1578.31)" xlink:href="#linear-gradient-9"/><radialGradient id="radial-gradient-9" cx="4027.4" cy="1110.1" r="19.97" gradientTransform="matrix(-1, 0, 0, 1, 4112.06, -641.77)" xlink:href="#radial-gradient-4"/><linearGradient id="linear-gradient-16" x1="4046.3" y1="1021.73" x2="4046.3" y2="1050.28" gradientTransform="matrix(1, 0, 0, -1, -3980.54, 1429.73)" xlink:href="#linear-gradient-9"/><radialGradient id="radial-gradient-10" cx="4027.4" cy="1035.81" r="19.97" gradientTransform="matrix(-1, 0, 0, 1, 4112.06, -641.77)" xlink:href="#radial-gradient-4"/><linearGradient id="linear-gradient-17" x1="4046.3" y1="947.44" x2="4046.3" y2="975.99" gradientTransform="matrix(1, 0, 0, -1, -3980.54, 1281.15)" xlink:href="#linear-gradient-9"/><radialGradient id="radial-gradient-11" cx="4027.4" cy="961.52" r="19.97" gradientTransform="matrix(-1, 0, 0, 1, 4112.06, -641.77)" xlink:href="#radial-gradient-4"/></defs><g id="Layer_2" data-name="Layer 2"><g id="Layer_1-2" data-name="Layer 1"><rect x="62.1" y="319.09" width="630.83" height="224.07" fill="url(#linear-gradient)"/><path d="M481.81,226.7H273.22a7.74,7.74,0,0,0-7.74,7.74v84.65l112,78,112-78V234.44A7.75,7.75,0,0,0,481.81,226.7Z" fill="url(#linear-gradient-2)"/><rect x="171.63" y="58.3" width="433.98" height="40.71" fill="url(#linear-gradient-3)"/><rect x="288.22" y="122.14" width="168.41" height="40.71" transform="translate(229.92 514.92) rotate(-90)" fill="url(#linear-gradient-4)"/><circle cx="372.42" cy="78.65" r="78.65" fill="url(#radial-gradient)"/><circle cx="561.45" cy="76.8" r="48.99" fill="url(#radial-gradient-2)"/><circle cx="185.72" cy="76.8" r="48.99" fill="url(#radial-gradient-3)"/><path d="M446.45,196.31h-148a23.6,23.6,0,0,0-23.6,23.6v6.79H470.05v-6.79A23.6,23.6,0,0,0,446.45,196.31Z" fill="url(#linear-gradient-5)"/><rect x="297.94" y="187.98" width="148.98" height="8.33" fill="url(#linear-gradient-6)"/><rect x="335.18" y="167.16" width="74.49" height="20.82" fill="url(#linear-gradient-7)"/><path d="M755,287.2h-54.8a7.28,7.28,0,0,0-7.28,7.28v273.3a7.28,7.28,0,0,0,7.28,7.28H755Z" fill="url(#linear-gradient-8)"/><rect x="685.58" y="528.16" width="7.34" height="28.8" fill="url(#linear-gradient-9)"/><path d="M685.58,528.19a14.38,14.38,0,1,0,0,28.75Z" fill="url(#radial-gradient-4)"/><rect x="685.58" y="453.87" width="7.34" height="28.8" fill="url(#linear-gradient-10)"/><path d="M685.58,453.9a14.38,14.38,0,1,0,0,28.75Z" fill="url(#radial-gradient-5)"/><rect x="685.58" y="379.58" width="7.34" height="28.8" fill="url(#linear-gradient-11)"/><path d="M685.58,379.61a14.38,14.38,0,1,0,0,28.75Z" fill="url(#radial-gradient-6)"/><rect x="685.58" y="305.29" width="7.34" height="28.8" fill="url(#linear-gradient-12)"/><path d="M685.58,305.32a14.38,14.38,0,1,0,0,28.75Z" fill="url(#radial-gradient-7)"/><path d="M0,287.2H54.8a7.28,7.28,0,0,1,7.29,7.28v273.3a7.28,7.28,0,0,1-7.29,7.28H0Z" fill="url(#linear-gradient-13)"/><rect x="62.09" y="528.16" width="7.34" height="28.8" transform="translate(131.53 1085.13) rotate(180)" fill="url(#linear-gradient-14)"/><path d="M69.43,528.19a14.38,14.38,0,1,1,0,28.75Z" fill="url(#radial-gradient-8)"/><rect x="62.09" y="453.87" width="7.34" height="28.8" transform="translate(131.53 936.55) rotate(180)" fill="url(#linear-gradient-15)"/><path d="M69.43,453.9a14.38,14.38,0,1,1,0,28.75Z" fill="url(#radial-gradient-9)"/><rect x="62.09" y="379.58" width="7.34" height="28.8" transform="translate(131.53 787.97) rotate(180)" fill="url(#linear-gradient-16)"/><path d="M69.43,379.61a14.38,14.38,0,1,1,0,28.75Z" fill="url(#radial-gradient-10)"/><rect x="62.09" y="305.29" width="7.34" height="28.8" transform="translate(131.53 639.39) rotate(180)" fill="url(#linear-gradient-17)"/><path d="M69.43,305.32a14.38,14.38,0,1,1,0,28.75Z" fill="url(#radial-gradient-11)"/></g></g></svg>