<svg xmlns="http://www.w3.org/2000/svg" xmlns:xlink="http://www.w3.org/1999/xlink" viewBox="0 0 541.24 1424.7"><defs><linearGradient id="linear-gradient" x1="-2371.38" y1="-1552.47" x2="-2147.31" y2="-1552.47" gradientTransform="matrix(-1, 0, 0, 1, -1862.03, 2264.82)" gradientUnits="userSpaceOnUse"><stop offset="0" stop-color="#585a5b"/><stop offset="0.32" stop-color="#e7e7e8"/><stop offset="0.37" stop-color="#dbdbdd"/><stop offset="0.45" stop-color="#babbbe"/><stop offset="0.47" stop-color="#b4b5b9"/><stop offset="0.66" stop-color="#96979b"/><stop offset="0.8" stop-color="#757578"/><stop offset="0.92" stop-color="#606062"/><stop offset="1" stop-color="#58585a"/></linearGradient><linearGradient id="linear-gradient-2" x1="-311.82" y1="2444.15" x2="-87.75" y2="2444.15" gradientTransform="translate(-2168.11 512.57) rotate(-90)" xlink:href="#linear-gradient"/><linearGradient id="linear-gradient-3" x1="-975.54" y1="13534.59" x2="-761.71" y2="13534.59" gradientTransform="matrix(-1, 0, 0, 1, -471.32, -13461.03)" xlink:href="#linear-gradient"/><linearGradient id="linear-gradient-4" x1="-15217.4" y1="1286.74" x2="-15217.4" y2="1062.67" gradientTransform="translate(-777.4 -15213.28) rotate(-90)" gradientUnits="userSpaceOnUse"><stop offset="0" stop-color="#58585a"/><stop offset="0.08" stop-color="#606062"/><stop offset="0.2" stop-color="#757578"/><stop offset="0.34" stop-color="#96979b"/><stop offset="0.53" stop-color="#b4b5b9"/><stop offset="0.55" stop-color="#babbbe"/><stop offset="0.63" stop-color="#dbdbdd"/><stop offset="0.68" stop-color="#e7e7e8"/><stop offset="1" stop-color="#585a5b"/></linearGradient><linearGradient id="linear-gradient-5" x1="-15232.21" y1="1286.74" x2="-15232.21" y2="1062.67" xlink:href="#linear-gradient-4"/><linearGradient id="linear-gradient-6" x1="-15247.01" y1="1286.74" x2="-15247.01" y2="1062.67" xlink:href="#linear-gradient-4"/><linearGradient id="linear-gradient-7" x1="-15261.82" y1="1286.74" x2="-15261.82" y2="1062.67" xlink:href="#linear-gradient-4"/><linearGradient id="linear-gradient-8" x1="-15276.62" y1="1286.74" x2="-15276.62" y2="1062.67" xlink:href="#linear-gradient-4"/><linearGradient id="linear-gradient-9" x1="-15291.43" y1="1286.74" x2="-15291.43" y2="1062.67" xlink:href="#linear-gradient-4"/><linearGradient id="linear-gradient-10" x1="-15306.23" y1="1286.74" x2="-15306.23" y2="1062.67" xlink:href="#linear-gradient-4"/><linearGradient id="linear-gradient-11" x1="-15321.04" y1="1286.74" x2="-15321.04" y2="1062.67" xlink:href="#linear-gradient-4"/><linearGradient id="linear-gradient-12" x1="-10231.6" y1="-7692.1" x2="-9945.72" y2="-7692.1" gradientTransform="matrix(-1, 0, 0, 1, -9689.69, 7849.8)" xlink:href="#linear-gradient"/><linearGradient id="linear-gradient-13" x1="-975.54" y1="14991.31" x2="-761.71" y2="14991.31" gradientTransform="translate(-471.32 16342.45) rotate(180)" xlink:href="#linear-gradient"/><linearGradient id="linear-gradient-14" x1="-16674.12" y1="1286.74" x2="-16674.12" y2="1062.67" gradientTransform="matrix(0, 1, 1, 0, -777.4, 18094.7)" xlink:href="#linear-gradient-4"/><linearGradient id="linear-gradient-15" x1="-16688.92" y1="1286.74" x2="-16688.92" y2="1062.67" gradientTransform="matrix(0, 1, 1, 0, -777.4, 18094.7)" xlink:href="#linear-gradient-4"/><linearGradient id="linear-gradient-16" x1="-16703.73" y1="1286.74" x2="-16703.73" y2="1062.67" gradientTransform="matrix(0, 1, 1, 0, -777.4, 18094.7)" xlink:href="#linear-gradient-4"/><linearGradient id="linear-gradient-17" x1="-16718.53" y1="1286.74" x2="-16718.53" y2="1062.67" gradientTransform="matrix(0, 1, 1, 0, -777.4, 18094.7)" xlink:href="#linear-gradient-4"/><linearGradient id="linear-gradient-18" x1="-16733.34" y1="1286.74" x2="-16733.34" y2="1062.67" gradientTransform="matrix(0, 1, 1, 0, -777.4, 18094.7)" xlink:href="#linear-gradient-4"/><linearGradient id="linear-gradient-19" x1="-16748.14" y1="1286.74" x2="-16748.14" y2="1062.67" gradientTransform="matrix(0, 1, 1, 0, -777.4, 18094.7)" xlink:href="#linear-gradient-4"/><linearGradient id="linear-gradient-20" x1="-16762.95" y1="1286.74" x2="-16762.95" y2="1062.67" gradientTransform="matrix(0, 1, 1, 0, -777.4, 18094.7)" xlink:href="#linear-gradient-4"/><linearGradient id="linear-gradient-21" x1="-16777.75" y1="1286.74" x2="-16777.75" y2="1062.67" gradientTransform="matrix(0, 1, 1, 0, -777.4, 18094.7)" xlink:href="#linear-gradient-4"/><linearGradient id="linear-gradient-22" x1="-10231.6" y1="-6235.39" x2="-9945.72" y2="-6235.39" gradientTransform="translate(-9689.69 -4968.38) rotate(180)" xlink:href="#linear-gradient"/><linearGradient id="linear-gradient-23" x1="922.95" y1="17501.7" x2="1136.78" y2="17501.7" gradientTransform="translate(-17428.14 1742.22) rotate(-90)" xlink:href="#linear-gradient"/><linearGradient id="linear-gradient-24" x1="-19184.51" y1="-611.75" x2="-19184.51" y2="-835.83" gradientTransform="matrix(-1, 0, 0, 1, -19180.39, 1436.14)" xlink:href="#linear-gradient-4"/><linearGradient id="linear-gradient-25" x1="-19199.31" y1="-611.75" x2="-19199.31" y2="-835.83" gradientTransform="matrix(-1, 0, 0, 1, -19180.39, 1436.14)" xlink:href="#linear-gradient-4"/><linearGradient id="linear-gradient-26" x1="-19214.12" y1="-611.75" x2="-19214.12" y2="-835.83" gradientTransform="matrix(-1, 0, 0, 1, -19180.39, 1436.14)" xlink:href="#linear-gradient-4"/><linearGradient id="linear-gradient-27" x1="-19228.92" y1="-611.75" x2="-19228.92" y2="-835.83" gradientTransform="matrix(-1, 0, 0, 1, -19180.39, 1436.14)" xlink:href="#linear-gradient-4"/><linearGradient id="linear-gradient-28" x1="-19243.73" y1="-611.75" x2="-19243.73" y2="-835.83" gradientTransform="matrix(-1, 0, 0, 1, -19180.39, 1436.14)" xlink:href="#linear-gradient-4"/><linearGradient id="linear-gradient-29" x1="-19258.53" y1="-611.75" x2="-19258.53" y2="-835.83" gradientTransform="matrix(-1, 0, 0, 1, -19180.39, 1436.14)" xlink:href="#linear-gradient-4"/><linearGradient id="linear-gradient-30" x1="-19273.34" y1="-611.75" x2="-19273.34" y2="-835.83" gradientTransform="matrix(-1, 0, 0, 1, -19180.39, 1436.14)" xlink:href="#linear-gradient-4"/><linearGradient id="linear-gradient-31" x1="-19288.14" y1="-611.75" x2="-19288.14" y2="-835.83" gradientTransform="matrix(-1, 0, 0, 1, -19180.39, 1436.14)" xlink:href="#linear-gradient-4"/><linearGradient id="linear-gradient-32" x1="-8333.11" y1="-3725" x2="-8047.22" y2="-3725" gradientTransform="translate(3882.69 -7476.16) rotate(-90)" xlink:href="#linear-gradient"/></defs><g id="Layer_2" data-name="Layer 2"><g id="Layer_1-2" data-name="Layer 1"><rect x="285.27" y="188.74" width="224.07" height="1047.23" fill="url(#linear-gradient)"/><polygon points="188.72 600.31 285.27 600.31 363.35 712.35 285.27 824.38 188.72 824.38 188.72 600.31" fill="url(#linear-gradient-2)"/><rect x="290.39" width="213.83" height="147.12" fill="url(#linear-gradient-3)"/><path d="M285.27,4.12a4.12,4.12,0,0,0,4.12,4.11H505.23a4.12,4.12,0,1,0,0-8.23H289.39A4.12,4.12,0,0,0,285.27,4.12Z" fill="url(#linear-gradient-4)"/><path d="M285.27,18.92A4.12,4.12,0,0,0,289.39,23H505.23a4.12,4.12,0,1,0,0-8.23H289.39A4.12,4.12,0,0,0,285.27,18.92Z" fill="url(#linear-gradient-5)"/><path d="M285.27,33.73a4.12,4.12,0,0,0,4.12,4.11H505.23a4.12,4.12,0,1,0,0-8.23H289.39A4.12,4.12,0,0,0,285.27,33.73Z" fill="url(#linear-gradient-6)"/><path d="M285.27,48.53a4.12,4.12,0,0,0,4.12,4.12H505.23a4.12,4.12,0,1,0,0-8.23H289.39A4.12,4.12,0,0,0,285.27,48.53Z" fill="url(#linear-gradient-7)"/><path d="M285.27,63.34a4.13,4.13,0,0,0,4.12,4.12H505.23a4.12,4.12,0,1,0,0-8.24H289.39A4.12,4.12,0,0,0,285.27,63.34Z" fill="url(#linear-gradient-8)"/><path d="M285.27,78.14a4.12,4.12,0,0,0,4.12,4.12H505.23a4.12,4.12,0,1,0,0-8.23H289.39A4.12,4.12,0,0,0,285.27,78.14Z" fill="url(#linear-gradient-9)"/><path d="M285.27,93a4.13,4.13,0,0,0,4.12,4.12H505.23a4.12,4.12,0,1,0,0-8.24H289.39A4.12,4.12,0,0,0,285.27,93Z" fill="url(#linear-gradient-10)"/><path d="M285.27,107.75a4.12,4.12,0,0,0,4.12,4.12H505.23a4.12,4.12,0,1,0,0-8.23H289.39A4.12,4.12,0,0,0,285.27,107.75Z" fill="url(#linear-gradient-11)"/><path d="M541.24,126.65v54.8a7.28,7.28,0,0,1-7.28,7.29H260.66a7.28,7.28,0,0,1-7.28-7.29v-54.8Z" fill="url(#linear-gradient-12)"/><rect x="290.39" y="1277.58" width="213.83" height="147.12" fill="url(#linear-gradient-13)"/><path d="M285.27,1420.58a4.12,4.12,0,0,1,4.12-4.11H505.23a4.12,4.12,0,1,1,0,8.23H289.39A4.12,4.12,0,0,1,285.27,1420.58Z" fill="url(#linear-gradient-14)"/><path d="M285.27,1405.78a4.12,4.12,0,0,1,4.12-4.12H505.23a4.12,4.12,0,1,1,0,8.23H289.39A4.12,4.12,0,0,1,285.27,1405.78Z" fill="url(#linear-gradient-15)"/><path d="M285.27,1391a4.13,4.13,0,0,1,4.12-4.12H505.23a4.12,4.12,0,0,1,0,8.24H289.39A4.12,4.12,0,0,1,285.27,1391Z" fill="url(#linear-gradient-16)"/><path d="M285.27,1376.17a4.12,4.12,0,0,1,4.12-4.12H505.23a4.12,4.12,0,1,1,0,8.23H289.39A4.12,4.12,0,0,1,285.27,1376.17Z" fill="url(#linear-gradient-17)"/><path d="M285.27,1361.36a4.13,4.13,0,0,1,4.12-4.12H505.23a4.12,4.12,0,0,1,0,8.24H289.39A4.12,4.12,0,0,1,285.27,1361.36Z" fill="url(#linear-gradient-18)"/><path d="M285.27,1346.56a4.12,4.12,0,0,1,4.12-4.12H505.23a4.12,4.12,0,1,1,0,8.23H289.39A4.12,4.12,0,0,1,285.27,1346.56Z" fill="url(#linear-gradient-19)"/><path d="M285.27,1331.75a4.13,4.13,0,0,1,4.12-4.12H505.23a4.12,4.12,0,1,1,0,8.24H289.39A4.12,4.12,0,0,1,285.27,1331.75Z" fill="url(#linear-gradient-20)"/><path d="M285.27,1317a4.12,4.12,0,0,1,4.12-4.12H505.23a4.12,4.12,0,1,1,0,8.23H289.39A4.12,4.12,0,0,1,285.27,1317Z" fill="url(#linear-gradient-21)"/><path d="M541.24,1298.05v-54.8A7.28,7.28,0,0,0,534,1236H260.66a7.28,7.28,0,0,0-7.28,7.29v54.8Z" fill="url(#linear-gradient-22)"/><rect y="605.44" width="147.12" height="213.83" fill="url(#linear-gradient-23)"/><path d="M4.12,600.31a4.12,4.12,0,0,1,4.11,4.12V820.27a4.12,4.12,0,1,1-8.23,0V604.43A4.12,4.12,0,0,1,4.12,600.31Z" fill="url(#linear-gradient-24)"/><path d="M18.92,600.31A4.12,4.12,0,0,1,23,604.43V820.27a4.12,4.12,0,1,1-8.23,0V604.43A4.12,4.12,0,0,1,18.92,600.31Z" fill="url(#linear-gradient-25)"/><path d="M33.73,600.31a4.12,4.12,0,0,1,4.11,4.12V820.27a4.12,4.12,0,1,1-8.23,0V604.43A4.12,4.12,0,0,1,33.73,600.31Z" fill="url(#linear-gradient-26)"/><path d="M48.53,600.31a4.12,4.12,0,0,1,4.12,4.12V820.27a4.12,4.12,0,1,1-8.23,0V604.43A4.12,4.12,0,0,1,48.53,600.31Z" fill="url(#linear-gradient-27)"/><path d="M63.34,600.31a4.13,4.13,0,0,1,4.12,4.12V820.27a4.12,4.12,0,0,1-8.24,0V604.43A4.12,4.12,0,0,1,63.34,600.31Z" fill="url(#linear-gradient-28)"/><path d="M78.14,600.31a4.12,4.12,0,0,1,4.12,4.12V820.27a4.12,4.12,0,1,1-8.23,0V604.43A4.12,4.12,0,0,1,78.14,600.31Z" fill="url(#linear-gradient-29)"/><path d="M93,600.31a4.13,4.13,0,0,1,4.12,4.12V820.27a4.12,4.12,0,1,1-8.24,0V604.43A4.12,4.12,0,0,1,93,600.31Z" fill="url(#linear-gradient-30)"/><path d="M107.75,600.31a4.12,4.12,0,0,1,4.12,4.12V820.27a4.12,4.12,0,1,1-8.23,0V604.43A4.12,4.12,0,0,1,107.75,600.31Z" fill="url(#linear-gradient-31)"/><path d="M126.65,856.28h54.8a7.28,7.28,0,0,0,7.29-7.28V575.7a7.28,7.28,0,0,0-7.29-7.28h-54.8Z" fill="url(#linear-gradient-32)"/></g></g></svg>