<svg xmlns="http://www.w3.org/2000/svg" xmlns:xlink="http://www.w3.org/1999/xlink" viewBox="0 0 1171.41 354.1"><defs><linearGradient id="linear-gradient" x1="987.66" y1="-1367.27" x2="1211.74" y2="-1367.27" gradientTransform="matrix(0, -1, -1, 0, -781.58, 1276.75)" gradientUnits="userSpaceOnUse"><stop offset="0" stop-color="#585a5b"/><stop offset="0.32" stop-color="#e7e7e8"/><stop offset="0.37" stop-color="#dbdbdd"/><stop offset="0.45" stop-color="#babbbe"/><stop offset="0.47" stop-color="#b4b5b9"/><stop offset="0.66" stop-color="#96979b"/><stop offset="0.8" stop-color="#757578"/><stop offset="0.92" stop-color="#606062"/><stop offset="1" stop-color="#58585a"/></linearGradient><linearGradient id="linear-gradient-2" x1="585.69" y1="-0.65" x2="585.69" y2="360.27" gradientTransform="matrix(1, 0, 0, 1, 0, 0)" xlink:href="#linear-gradient"/><linearGradient id="linear-gradient-3" x1="219.09" y1="354.1" x2="219.09" y2="0" gradientTransform="matrix(1, 0, 0, 1, 0, 0)" xlink:href="#linear-gradient"/><linearGradient id="linear-gradient-4" x1="952.3" y1="354.1" x2="952.3" y2="0" gradientTransform="matrix(1, 0, 0, 1, 0, 0)" xlink:href="#linear-gradient"/><linearGradient id="linear-gradient-5" x1="293.26" y1="0.36" x2="293.26" y2="353.29" gradientUnits="userSpaceOnUse"><stop offset="0" stop-color="#585a5b"/><stop offset="0.49" stop-color="#e7e7e8"/><stop offset="0.65" stop-color="#dbdbdd"/><stop offset="0.95" stop-color="#babbbe"/><stop offset="1" stop-color="#b4b5b9"/></linearGradient><linearGradient id="linear-gradient-6" x1="878.12" y1="0.36" x2="878.12" y2="353.29" xlink:href="#linear-gradient-5"/><linearGradient id="linear-gradient-7" x1="585.69" y1="82.67" x2="585.69" y2="271.43" gradientTransform="matrix(1, 0, 0, 1, 0, 0)" xlink:href="#linear-gradient"/><linearGradient id="linear-gradient-8" x1="585.69" y1="89.23" x2="585.69" y2="265.83" gradientUnits="userSpaceOnUse"><stop offset="0" stop-color="#414042"/><stop offset="1" stop-color="#231f20"/></linearGradient><linearGradient id="linear-gradient-9" x1="355.15" y1="177.05" x2="366.46" y2="177.05" gradientTransform="matrix(1, 0, 0, 1, 0, 0)" xlink:href="#linear-gradient"/><linearGradient id="linear-gradient-10" x1="379.9" y1="177.05" x2="391.61" y2="177.05" gradientTransform="matrix(1, 0, 0, 1, 0, 0)" xlink:href="#linear-gradient"/><linearGradient id="linear-gradient-11" x1="405.18" y1="177.05" x2="416.6" y2="177.05" gradientTransform="matrix(1, 0, 0, 1, 0, 0)" xlink:href="#linear-gradient"/><linearGradient id="linear-gradient-12" x1="430.04" y1="177.05" x2="441.43" y2="177.05" gradientTransform="matrix(1, 0, 0, 1, 0, 0)" xlink:href="#linear-gradient"/><linearGradient id="linear-gradient-13" x1="454.97" y1="177.05" x2="466.74" y2="177.05" gradientTransform="matrix(1, 0, 0, 1, 0, 0)" xlink:href="#linear-gradient"/><linearGradient id="linear-gradient-14" x1="480.01" y1="177.05" x2="491.5" y2="177.05" gradientTransform="matrix(1, 0, 0, 1, 0, 0)" xlink:href="#linear-gradient"/><linearGradient id="linear-gradient-15" x1="505.11" y1="177.05" x2="516.47" y2="177.05" gradientTransform="matrix(1, 0, 0, 1, 0, 0)" xlink:href="#linear-gradient"/><linearGradient id="linear-gradient-16" x1="529.92" y1="177.05" x2="541.52" y2="177.05" gradientTransform="matrix(1, 0, 0, 1, 0, 0)" xlink:href="#linear-gradient"/><linearGradient id="linear-gradient-17" x1="554.9" y1="177.05" x2="566.19" y2="177.05" gradientTransform="matrix(1, 0, 0, 1, 0, 0)" xlink:href="#linear-gradient"/><linearGradient id="linear-gradient-18" x1="580.06" y1="177.05" x2="591.46" y2="177.05" gradientTransform="matrix(1, 0, 0, 1, 0, 0)" xlink:href="#linear-gradient"/><linearGradient id="linear-gradient-19" x1="604.93" y1="177.05" x2="616.27" y2="177.05" gradientTransform="matrix(1, 0, 0, 1, 0, 0)" xlink:href="#linear-gradient"/><linearGradient id="linear-gradient-20" x1="629.91" y1="177.05" x2="641.49" y2="177.05" gradientTransform="matrix(1, 0, 0, 1, 0, 0)" xlink:href="#linear-gradient"/><linearGradient id="linear-gradient-21" x1="654.96" y1="177.05" x2="666.33" y2="177.05" gradientTransform="matrix(1, 0, 0, 1, 0, 0)" xlink:href="#linear-gradient"/><linearGradient id="linear-gradient-22" x1="679.88" y1="177.05" x2="691.4" y2="177.05" gradientTransform="matrix(1, 0, 0, 1, 0, 0)" xlink:href="#linear-gradient"/><linearGradient id="linear-gradient-23" x1="704.86" y1="177.05" x2="716.29" y2="177.05" gradientTransform="matrix(1, 0, 0, 1, 0, 0)" xlink:href="#linear-gradient"/><linearGradient id="linear-gradient-24" x1="729.79" y1="177.05" x2="741.11" y2="177.05" gradientTransform="matrix(1, 0, 0, 1, 0, 0)" xlink:href="#linear-gradient"/><linearGradient id="linear-gradient-25" x1="755.06" y1="177.05" x2="766.4" y2="177.05" gradientTransform="matrix(1, 0, 0, 1, 0, 0)" xlink:href="#linear-gradient"/><linearGradient id="linear-gradient-26" x1="779.7" y1="177.05" x2="791.21" y2="177.05" gradientTransform="matrix(1, 0, 0, 1, 0, 0)" xlink:href="#linear-gradient"/><linearGradient id="linear-gradient-27" x1="804.95" y1="177.05" x2="816.08" y2="177.05" gradientTransform="matrix(1, 0, 0, 1, 0, 0)" xlink:href="#linear-gradient"/><linearGradient id="linear-gradient-28" x1="-4460.37" y1="-8785.24" x2="-4174.48" y2="-8785.24" gradientTransform="translate(-7644.87 4492.82) rotate(90)" gradientUnits="userSpaceOnUse"><stop offset="0" stop-color="#58585a"/><stop offset="0.08" stop-color="#606062"/><stop offset="0.2" stop-color="#757578"/><stop offset="0.34" stop-color="#96979b"/><stop offset="0.53" stop-color="#b4b5b9"/><stop offset="0.55" stop-color="#babbbe"/><stop offset="0.63" stop-color="#dbdbdd"/><stop offset="0.68" stop-color="#e7e7e8"/><stop offset="1" stop-color="#585a5b"/></linearGradient><linearGradient id="linear-gradient-29" x1="210.15" y1="916.24" x2="210.15" y2="944.78" gradientTransform="translate(895.5 -641.77)" gradientUnits="userSpaceOnUse"><stop offset="0" stop-color="#414042"/><stop offset="0.51" stop-color="#6d6e71"/><stop offset="0.99" stop-color="#414042"/></linearGradient><radialGradient id="radial-gradient" cx="191.25" cy="930.32" r="19.97" gradientTransform="translate(895.5 -641.77)" gradientUnits="userSpaceOnUse"><stop offset="0" stop-color="#6d6e71"/><stop offset="1" stop-color="#414042"/></radialGradient><linearGradient id="linear-gradient-30" x1="210.15" y1="841.95" x2="210.15" y2="870.49" xlink:href="#linear-gradient-29"/><radialGradient id="radial-gradient-2" cx="191.25" cy="856.03" r="19.97" xlink:href="#radial-gradient"/><linearGradient id="linear-gradient-31" x1="210.15" y1="767.66" x2="210.15" y2="796.2" xlink:href="#linear-gradient-29"/><radialGradient id="radial-gradient-3" cx="191.25" cy="781.74" r="19.97" xlink:href="#radial-gradient"/><linearGradient id="linear-gradient-32" x1="210.15" y1="693.37" x2="210.15" y2="721.91" xlink:href="#linear-gradient-29"/><radialGradient id="radial-gradient-4" cx="191.25" cy="707.45" r="19.97" xlink:href="#radial-gradient"/><linearGradient id="linear-gradient-33" x1="-4460.37" y1="-10526.47" x2="-4174.48" y2="-10526.47" gradientTransform="matrix(0, 1, 1, 0, 10557.52, 4492.82)" xlink:href="#linear-gradient-28"/><linearGradient id="linear-gradient-34" x1="1951.39" y1="916.24" x2="1951.39" y2="944.78" gradientTransform="matrix(1, 0, 0, -1, -1885.62, 1218.74)" xlink:href="#linear-gradient-29"/><radialGradient id="radial-gradient-5" cx="1932.48" cy="930.32" r="19.97" gradientTransform="matrix(-1, 0, 0, 1, 2017.15, -641.77)" xlink:href="#radial-gradient"/><linearGradient id="linear-gradient-35" x1="1951.39" y1="841.95" x2="1951.39" y2="870.49" gradientTransform="matrix(1, 0, 0, -1, -1885.62, 1070.16)" xlink:href="#linear-gradient-29"/><radialGradient id="radial-gradient-6" cx="1932.48" cy="856.03" r="19.97" gradientTransform="matrix(-1, 0, 0, 1, 2017.15, -641.77)" xlink:href="#radial-gradient"/><linearGradient id="linear-gradient-36" x1="1951.39" y1="767.66" x2="1951.39" y2="796.2" gradientTransform="matrix(1, 0, 0, -1, -1885.62, 921.58)" xlink:href="#linear-gradient-29"/><radialGradient id="radial-gradient-7" cx="1932.48" cy="781.74" r="19.97" gradientTransform="matrix(-1, 0, 0, 1, 2017.15, -641.77)" xlink:href="#radial-gradient"/><linearGradient id="linear-gradient-37" x1="1951.39" y1="693.37" x2="1951.39" y2="721.91" gradientTransform="matrix(1, 0, 0, -1, -1885.62, 773)" xlink:href="#linear-gradient-29"/><radialGradient id="radial-gradient-8" cx="1932.48" cy="707.44" r="19.97" gradientTransform="matrix(-1, 0, 0, 1, 2017.15, -641.77)" xlink:href="#radial-gradient"/></defs><g id="Layer_2" data-name="Layer 2"><g id="Layer_1-2" data-name="Layer 1"><rect x="62.08" y="65.02" width="1047.23" height="224.07" fill="url(#linear-gradient)"/><polygon points="1024.48 65.02 1024.48 289.09 880.13 354.1 291.26 354.1 146.91 289.09 146.91 65.02 291.26 0 880.13 0 1024.48 65.02" fill="url(#linear-gradient-2)"/><polygon points="291.26 0 291.26 354.1 146.91 289.09 146.91 65.02 291.26 0" fill="url(#linear-gradient-3)"/><polygon points="1024.48 65.02 1024.48 289.09 880.13 354.1 880.13 0 1024.48 65.02" fill="url(#linear-gradient-4)"/><rect x="291.26" width="4" height="354.1" fill="url(#linear-gradient-5)"/><rect x="876.12" width="4" height="354.1" fill="url(#linear-gradient-6)"/><rect x="328.45" y="82.67" width="514.48" height="188.77" rx="38.03" fill="url(#linear-gradient-7)"/><path d="M836,121.53v111a31.93,31.93,0,0,1-31.14,31.92H366.54a31.95,31.95,0,0,1-31.15-31.92v-111A32,32,0,0,1,355.14,92a31.56,31.56,0,0,1,11.4-2.4H804.85a31.65,31.65,0,0,1,11.4,2.4A32,32,0,0,1,836,121.53Z" fill="url(#linear-gradient-8)"/><path d="M366.54,89.62V264.49a31.78,31.78,0,0,1-11.4-2.41V92A31.56,31.56,0,0,1,366.54,89.62Z" fill="url(#linear-gradient-9)"/><rect x="380.12" y="89.61" width="11.4" height="174.89" fill="url(#linear-gradient-10)"/><rect x="405.11" y="89.61" width="11.4" height="174.89" fill="url(#linear-gradient-11)"/><rect x="430.09" y="89.61" width="11.4" height="174.89" fill="url(#linear-gradient-12)"/><rect x="455.07" y="89.61" width="11.4" height="174.89" fill="url(#linear-gradient-13)"/><rect x="480.06" y="89.61" width="11.4" height="174.89" fill="url(#linear-gradient-14)"/><rect x="505.04" y="89.61" width="11.4" height="174.89" fill="url(#linear-gradient-15)"/><rect x="530.02" y="89.61" width="11.4" height="174.89" fill="url(#linear-gradient-16)"/><rect x="555.01" y="89.61" width="11.4" height="174.89" fill="url(#linear-gradient-17)"/><rect x="579.99" y="89.61" width="11.4" height="174.89" fill="url(#linear-gradient-18)"/><rect x="604.98" y="89.61" width="11.4" height="174.89" fill="url(#linear-gradient-19)"/><rect x="629.96" y="89.61" width="11.4" height="174.89" fill="url(#linear-gradient-20)"/><rect x="654.94" y="89.61" width="11.4" height="174.89" fill="url(#linear-gradient-21)"/><rect x="679.93" y="89.61" width="11.4" height="174.89" fill="url(#linear-gradient-22)"/><rect x="704.91" y="89.61" width="11.4" height="174.89" fill="url(#linear-gradient-23)"/><rect x="729.89" y="89.61" width="11.4" height="174.89" fill="url(#linear-gradient-24)"/><rect x="754.88" y="89.61" width="11.4" height="174.89" fill="url(#linear-gradient-25)"/><rect x="779.86" y="89.61" width="11.4" height="174.89" fill="url(#linear-gradient-26)"/><path d="M816.25,92V262.08a31.87,31.87,0,0,1-11.4,2.41V89.62A31.65,31.65,0,0,1,816.25,92Z" fill="url(#linear-gradient-27)"/><path d="M1171.41,33.12h-54.8a7.28,7.28,0,0,0-7.29,7.28V313.7a7.29,7.29,0,0,0,7.29,7.29h54.8Z" fill="url(#linear-gradient-28)"/><rect x="1101.98" y="274.09" width="7.34" height="28.8" fill="url(#linear-gradient-29)"/><path d="M1102,274.11a14.38,14.38,0,1,0,0,28.75Z" fill="url(#radial-gradient)"/><rect x="1101.98" y="199.8" width="7.34" height="28.8" fill="url(#linear-gradient-30)"/><path d="M1102,199.82a14.38,14.38,0,1,0,0,28.75Z" fill="url(#radial-gradient-2)"/><rect x="1101.98" y="125.51" width="7.34" height="28.8" fill="url(#linear-gradient-31)"/><path d="M1102,125.53a14.38,14.38,0,1,0,0,28.75Z" fill="url(#radial-gradient-3)"/><rect x="1101.98" y="51.22" width="7.34" height="28.8" fill="url(#linear-gradient-32)"/><path d="M1102,51.24A14.38,14.38,0,1,0,1102,80Z" fill="url(#radial-gradient-4)"/><path d="M0,33.12H54.8a7.28,7.28,0,0,1,7.29,7.28V313.7A7.28,7.28,0,0,1,54.8,321H0Z" fill="url(#linear-gradient-33)"/><rect x="62.09" y="274.09" width="7.34" height="28.8" transform="translate(131.53 576.97) rotate(180)" fill="url(#linear-gradient-34)"/><path d="M69.43,274.11a14.38,14.38,0,1,1,0,28.75Z" fill="url(#radial-gradient-5)"/><rect x="62.09" y="199.8" width="7.34" height="28.8" transform="translate(131.53 428.39) rotate(180)" fill="url(#linear-gradient-35)"/><path d="M69.43,199.82a14.38,14.38,0,1,1,0,28.75Z" fill="url(#radial-gradient-6)"/><rect x="62.09" y="125.51" width="7.34" height="28.8" transform="translate(131.53 279.81) rotate(180)" fill="url(#linear-gradient-36)"/><path d="M69.43,125.53a14.38,14.38,0,1,1,0,28.75Z" fill="url(#radial-gradient-7)"/><rect x="62.09" y="51.22" width="7.34" height="28.8" transform="translate(131.53 131.23) rotate(180)" fill="url(#linear-gradient-37)"/><path d="M69.43,51.24a14.38,14.38,0,1,1,0,28.75Z" fill="url(#radial-gradient-8)"/></g></g></svg>