<svg xmlns="http://www.w3.org/2000/svg" xmlns:xlink="http://www.w3.org/1999/xlink" viewBox="0 0 1034.55 287.87"><defs><linearGradient id="linear-gradient" x1="-303.59" y1="-13267" x2="-79.52" y2="-13267" gradientTransform="matrix(0, 1, 1, 0, 13784.27, 335.49)" gradientUnits="userSpaceOnUse"><stop offset="0" stop-color="#585a5b"/><stop offset="0.32" stop-color="#e7e7e8"/><stop offset="0.37" stop-color="#dbdbdd"/><stop offset="0.45" stop-color="#babbbe"/><stop offset="0.47" stop-color="#b4b5b9"/><stop offset="0.66" stop-color="#96979b"/><stop offset="0.8" stop-color="#757578"/><stop offset="0.92" stop-color="#606062"/><stop offset="1" stop-color="#58585a"/></linearGradient><linearGradient id="linear-gradient-2" x1="-4863.42" y1="-15872.12" x2="-4577.53" y2="-15872.12" gradientTransform="translate(15903.16 -4574.88) rotate(-90)" gradientUnits="userSpaceOnUse"><stop offset="0" stop-color="#58585a"/><stop offset="0.08" stop-color="#606062"/><stop offset="0.2" stop-color="#757578"/><stop offset="0.34" stop-color="#96979b"/><stop offset="0.53" stop-color="#b4b5b9"/><stop offset="0.55" stop-color="#babbbe"/><stop offset="0.63" stop-color="#dbdbdd"/><stop offset="0.68" stop-color="#e7e7e8"/><stop offset="1" stop-color="#585a5b"/></linearGradient><linearGradient id="linear-gradient-3" x1="3707.65" y1="2082.32" x2="3707.65" y2="2110.86" gradientTransform="translate(-3641.89 -2063.84)" gradientUnits="userSpaceOnUse"><stop offset="0" stop-color="#414042"/><stop offset="0.51" stop-color="#6d6e71"/><stop offset="0.99" stop-color="#414042"/></linearGradient><radialGradient id="radial-gradient" cx="3688.75" cy="2096.4" r="19.97" gradientTransform="translate(3773.41 2128.83) rotate(180)" gradientUnits="userSpaceOnUse"><stop offset="0" stop-color="#6d6e71"/><stop offset="1" stop-color="#414042"/></radialGradient><linearGradient id="linear-gradient-4" x1="3707.65" y1="2008.03" x2="3707.65" y2="2036.57" gradientTransform="translate(-3641.89 -1915.25)" xlink:href="#linear-gradient-3"/><radialGradient id="radial-gradient-2" cx="3688.75" cy="2022.11" r="19.97" xlink:href="#radial-gradient"/><linearGradient id="linear-gradient-5" x1="3707.65" y1="1933.74" x2="3707.65" y2="1962.28" gradientTransform="translate(-3641.89 -1766.67)" xlink:href="#linear-gradient-3"/><radialGradient id="radial-gradient-3" cx="3688.75" cy="1947.82" r="19.97" xlink:href="#radial-gradient"/><linearGradient id="linear-gradient-6" x1="3707.65" y1="1859.45" x2="3707.65" y2="1887.99" gradientTransform="translate(-3641.89 -1618.09)" xlink:href="#linear-gradient-3"/><radialGradient id="radial-gradient-4" cx="3688.75" cy="1873.53" r="19.97" xlink:href="#radial-gradient"/><linearGradient id="linear-gradient-7" x1="-6062.62" y1="-12237.76" x2="-5776.73" y2="-12237.76" gradientTransform="translate(-11234.26 6061.95) rotate(90)" xlink:href="#linear-gradient"/><linearGradient id="linear-gradient-8" x1="73.29" y1="883.12" x2="73.29" y2="911.66" gradientTransform="translate(895.5 -641.77)" xlink:href="#linear-gradient-3"/><radialGradient id="radial-gradient-5" cx="54.38" cy="897.2" r="19.97" gradientTransform="translate(895.5 -641.77)" xlink:href="#radial-gradient"/><linearGradient id="linear-gradient-9" x1="73.29" y1="808.83" x2="73.29" y2="837.37" gradientTransform="translate(895.5 -641.77)" xlink:href="#linear-gradient-3"/><radialGradient id="radial-gradient-6" cx="54.38" cy="822.91" r="19.97" gradientTransform="translate(895.5 -641.77)" xlink:href="#radial-gradient"/><linearGradient id="linear-gradient-10" x1="73.29" y1="734.54" x2="73.29" y2="763.08" gradientTransform="translate(895.5 -641.77)" xlink:href="#linear-gradient-3"/><radialGradient id="radial-gradient-7" cx="54.38" cy="748.62" r="19.97" gradientTransform="translate(895.5 -641.77)" xlink:href="#radial-gradient"/><linearGradient id="linear-gradient-11" x1="73.29" y1="660.25" x2="73.29" y2="688.79" gradientTransform="translate(895.5 -641.77)" xlink:href="#linear-gradient-3"/><radialGradient id="radial-gradient-8" cx="54.38" cy="674.33" r="19.97" gradientTransform="translate(895.5 -641.77)" xlink:href="#radial-gradient"/></defs><g id="Layer_2" data-name="Layer 2"><g id="Layer_1-2" data-name="Layer 1"><rect x="62.09" y="31.89" width="910.37" height="224.07" fill="url(#linear-gradient)"/><path d="M0,287.87H54.8a7.29,7.29,0,0,0,7.29-7.29V7.28A7.28,7.28,0,0,0,54.8,0H0Z" fill="url(#linear-gradient-2)"/><rect x="62.09" y="18.1" width="7.34" height="28.8" transform="translate(131.52 64.99) rotate(180)" fill="url(#linear-gradient-3)"/><path d="M69.43,46.87a14.38,14.38,0,0,0,0-28.75Z" fill="url(#radial-gradient)"/><rect x="62.09" y="92.39" width="7.34" height="28.8" transform="translate(131.52 213.58) rotate(180)" fill="url(#linear-gradient-4)"/><path d="M69.43,121.16a14.38,14.38,0,0,0,0-28.75Z" fill="url(#radial-gradient-2)"/><rect x="62.09" y="166.68" width="7.34" height="28.8" transform="translate(131.52 362.16) rotate(180)" fill="url(#linear-gradient-5)"/><path d="M69.43,195.45a14.38,14.38,0,0,0,0-28.75Z" fill="url(#radial-gradient-3)"/><rect x="62.09" y="240.97" width="7.34" height="28.8" transform="translate(131.52 510.74) rotate(180)" fill="url(#linear-gradient-6)"/><path d="M69.43,269.74a14.38,14.38,0,0,0,0-28.75Z" fill="url(#radial-gradient-4)"/><path d="M1034.55,0H979.74a7.28,7.28,0,0,0-7.28,7.28v273.3a7.29,7.29,0,0,0,7.28,7.29h54.81Z" fill="url(#linear-gradient-7)"/><rect x="965.11" y="240.97" width="7.34" height="28.8" fill="url(#linear-gradient-8)"/><path d="M965.11,241a14.38,14.38,0,0,0,0,28.75Z" fill="url(#radial-gradient-5)"/><rect x="965.11" y="166.68" width="7.34" height="28.8" fill="url(#linear-gradient-9)"/><path d="M965.11,166.7a14.38,14.38,0,0,0,0,28.75Z" fill="url(#radial-gradient-6)"/><rect x="965.11" y="92.39" width="7.34" height="28.8" fill="url(#linear-gradient-10)"/><path d="M965.11,92.41a14.38,14.38,0,0,0,0,28.75Z" fill="url(#radial-gradient-7)"/><rect x="965.11" y="18.1" width="7.34" height="28.8" fill="url(#linear-gradient-11)"/><path d="M965.11,18.12a14.38,14.38,0,0,0,0,28.75Z" fill="url(#radial-gradient-8)"/></g></g></svg>