<svg xmlns="http://www.w3.org/2000/svg" xmlns:xlink="http://www.w3.org/1999/xlink" viewBox="0 0 287.87 2097.15"><defs><linearGradient id="linear-gradient" x1="-3239.68" y1="-6648.25" x2="-3015.61" y2="-6648.25" gradientTransform="matrix(1, 0, 0, -1, 3271.58, -5599.67)" gradientUnits="userSpaceOnUse"><stop offset="0" stop-color="#585a5b"/><stop offset="0.32" stop-color="#e7e7e8"/><stop offset="0.37" stop-color="#dbdbdd"/><stop offset="0.45" stop-color="#babbbe"/><stop offset="0.47" stop-color="#b4b5b9"/><stop offset="0.66" stop-color="#96979b"/><stop offset="0.8" stop-color="#757578"/><stop offset="0.92" stop-color="#606062"/><stop offset="1" stop-color="#58585a"/></linearGradient><linearGradient id="linear-gradient-2" x1="-1632.2" y1="-9784.67" x2="-1346.31" y2="-9784.67" gradientTransform="translate(-1343.66 -7718.56) rotate(180)" gradientUnits="userSpaceOnUse"><stop offset="0" stop-color="#58585a"/><stop offset="0.08" stop-color="#606062"/><stop offset="0.2" stop-color="#757578"/><stop offset="0.34" stop-color="#96979b"/><stop offset="0.53" stop-color="#b4b5b9"/><stop offset="0.55" stop-color="#babbbe"/><stop offset="0.63" stop-color="#dbdbdd"/><stop offset="0.68" stop-color="#e7e7e8"/><stop offset="1" stop-color="#585a5b"/></linearGradient><linearGradient id="linear-gradient-3" x1="89.66" y1="7487.87" x2="89.66" y2="7516.42" gradientTransform="translate(-57.16 -5470.49)" gradientUnits="userSpaceOnUse"><stop offset="0" stop-color="#414042"/><stop offset="0.51" stop-color="#6d6e71"/><stop offset="0.99" stop-color="#414042"/></linearGradient><radialGradient id="radial-gradient" cx="70.76" cy="7501.95" r="19.97" gradientTransform="translate(7534.38 1941.73) rotate(90)" gradientUnits="userSpaceOnUse"><stop offset="0" stop-color="#6d6e71"/><stop offset="1" stop-color="#414042"/></radialGradient><linearGradient id="linear-gradient-4" x1="89.66" y1="7413.58" x2="89.66" y2="7442.13" gradientTransform="translate(17.13 -5396.2)" xlink:href="#linear-gradient-3"/><radialGradient id="radial-gradient-2" cx="70.76" cy="7427.66" r="19.97" xlink:href="#radial-gradient"/><linearGradient id="linear-gradient-5" x1="89.66" y1="7339.29" x2="89.66" y2="7367.84" gradientTransform="translate(91.42 -5321.91)" xlink:href="#linear-gradient-3"/><radialGradient id="radial-gradient-3" cx="70.76" cy="7353.37" r="19.97" xlink:href="#radial-gradient"/><linearGradient id="linear-gradient-6" x1="89.66" y1="7265" x2="89.66" y2="7293.55" gradientTransform="translate(165.71 -5247.62)" xlink:href="#linear-gradient-3"/><radialGradient id="radial-gradient-4" cx="70.76" cy="7279.08" r="19.97" xlink:href="#radial-gradient"/><linearGradient id="linear-gradient-7" x1="-8998.71" y1="-14744.02" x2="-8712.83" y2="-14744.02" gradientTransform="translate(8998.04 14775.06)" xlink:href="#linear-gradient"/><linearGradient id="linear-gradient-8" x1="5049.01" y1="121.36" x2="5049.01" y2="149.9" gradientTransform="translate(-4793.64 -69.61)" xlink:href="#linear-gradient-3"/><radialGradient id="radial-gradient-5" cx="5030.11" cy="135.44" r="19.97" gradientTransform="translate(120 5114.77) rotate(-90)" xlink:href="#radial-gradient"/><linearGradient id="linear-gradient-9" x1="5049.01" y1="47.07" x2="5049.01" y2="75.61" gradientTransform="translate(-4867.93 4.68)" xlink:href="#linear-gradient-3"/><radialGradient id="radial-gradient-6" cx="5030.11" cy="61.15" r="19.97" gradientTransform="translate(120 5114.77) rotate(-90)" xlink:href="#radial-gradient"/><linearGradient id="linear-gradient-10" x1="5049.01" y1="-27.22" x2="5049.01" y2="1.32" gradientTransform="translate(-4942.22 78.97)" xlink:href="#linear-gradient-3"/><radialGradient id="radial-gradient-7" cx="5030.11" cy="-13.14" r="19.97" gradientTransform="translate(120 5114.77) rotate(-90)" xlink:href="#radial-gradient"/><linearGradient id="linear-gradient-11" x1="5049.01" y1="-101.51" x2="5049.01" y2="-72.97" gradientTransform="translate(-5016.51 153.26)" xlink:href="#linear-gradient-3"/><radialGradient id="radial-gradient-8" cx="5030.11" cy="-87.43" r="19.97" gradientTransform="translate(120 5114.77) rotate(-90)" xlink:href="#radial-gradient"/></defs><g id="Layer_2" data-name="Layer 2"><g id="Layer_1-2" data-name="Layer 1"><rect x="31.89" y="62.09" width="224.07" height="1972.97" fill="url(#linear-gradient)"/><path d="M287.87,2097.15v-54.8a7.3,7.3,0,0,0-7.29-7.29H7.28A7.29,7.29,0,0,0,0,2042.35v54.8Z" fill="url(#linear-gradient-2)"/><rect x="28.83" y="2016.99" width="7.34" height="28.8" transform="translate(2063.89 1998.9) rotate(90)" fill="url(#linear-gradient-3)"/><path d="M46.87,2027.72a14.38,14.38,0,0,0-28.75,0Z" fill="url(#radial-gradient)"/><rect x="103.12" y="2016.99" width="7.34" height="28.8" transform="translate(2138.18 1924.61) rotate(90)" fill="url(#linear-gradient-4)"/><path d="M121.16,2027.72a14.38,14.38,0,0,0-28.75,0Z" fill="url(#radial-gradient-2)"/><rect x="177.41" y="2016.99" width="7.34" height="28.8" transform="translate(2212.47 1850.31) rotate(90)" fill="url(#linear-gradient-5)"/><path d="M195.45,2027.72a14.38,14.38,0,0,0-28.75,0Z" fill="url(#radial-gradient-3)"/><rect x="251.7" y="2016.99" width="7.34" height="28.8" transform="translate(2286.76 1776.02) rotate(90)" fill="url(#linear-gradient-6)"/><path d="M269.74,2027.72a14.38,14.38,0,0,0-28.75,0Z" fill="url(#radial-gradient-4)"/><path d="M0,0V54.8a7.28,7.28,0,0,0,7.28,7.29h273.3a7.29,7.29,0,0,0,7.29-7.29V0Z" fill="url(#linear-gradient-7)"/><rect x="251.7" y="51.36" width="7.34" height="28.8" transform="translate(189.61 321.13) rotate(-90)" fill="url(#linear-gradient-8)"/><path d="M241,69.43a14.38,14.38,0,1,0,28.75,0Z" fill="url(#radial-gradient-5)"/><rect x="177.41" y="51.36" width="7.34" height="28.8" transform="translate(115.32 246.84) rotate(-90)" fill="url(#linear-gradient-9)"/><path d="M166.7,69.43a14.38,14.38,0,1,0,28.75,0Z" fill="url(#radial-gradient-6)"/><rect x="103.12" y="51.36" width="7.34" height="28.8" transform="translate(41.02 172.55) rotate(-90)" fill="url(#linear-gradient-10)"/><path d="M92.41,69.43a14.38,14.38,0,1,0,28.75,0Z" fill="url(#radial-gradient-7)"/><rect x="28.83" y="51.36" width="7.34" height="28.8" transform="translate(-33.27 98.26) rotate(-90)" fill="url(#linear-gradient-11)"/><path d="M18.12,69.43a14.38,14.38,0,1,0,28.75,0Z" fill="url(#radial-gradient-8)"/></g></g></svg>