<svg xmlns="http://www.w3.org/2000/svg" xmlns:xlink="http://www.w3.org/1999/xlink" viewBox="0 0 167.62 287.87"><defs><linearGradient id="linear-gradient" x1="-8856.73" y1="-8380.12" x2="-8570.84" y2="-8380.12" gradientTransform="translate(-8327.36 8856.06) rotate(90)" gradientUnits="userSpaceOnUse"><stop offset="0" stop-color="#585a5b"/><stop offset="0.32" stop-color="#e7e7e8"/><stop offset="0.37" stop-color="#dbdbdd"/><stop offset="0.45" stop-color="#babbbe"/><stop offset="0.47" stop-color="#b4b5b9"/><stop offset="0.66" stop-color="#96979b"/><stop offset="0.8" stop-color="#757578"/><stop offset="0.92" stop-color="#606062"/><stop offset="1" stop-color="#58585a"/></linearGradient><linearGradient id="linear-gradient-2" x1="-877.45" y1="883.12" x2="-877.45" y2="911.66" gradientTransform="translate(895.5 -641.77)" gradientUnits="userSpaceOnUse"><stop offset="0" stop-color="#414042"/><stop offset="0.51" stop-color="#6d6e71"/><stop offset="0.99" stop-color="#414042"/></linearGradient><radialGradient id="radial-gradient" cx="-896.35" cy="897.2" r="19.97" gradientTransform="translate(895.5 -641.77)" gradientUnits="userSpaceOnUse"><stop offset="0" stop-color="#6d6e71"/><stop offset="1" stop-color="#414042"/></radialGradient><linearGradient id="linear-gradient-3" x1="-877.45" y1="808.83" x2="-877.45" y2="837.37" xlink:href="#linear-gradient-2"/><radialGradient id="radial-gradient-2" cx="-896.35" cy="822.91" r="19.97" xlink:href="#radial-gradient"/><linearGradient id="linear-gradient-4" x1="-877.45" y1="734.54" x2="-877.45" y2="763.08" xlink:href="#linear-gradient-2"/><radialGradient id="radial-gradient-3" cx="-896.35" cy="748.62" r="19.97" xlink:href="#radial-gradient"/><linearGradient id="linear-gradient-5" x1="-877.45" y1="660.25" x2="-877.45" y2="688.79" xlink:href="#linear-gradient-2"/><radialGradient id="radial-gradient-4" cx="-896.35" cy="674.33" r="19.97" xlink:href="#radial-gradient"/><linearGradient id="linear-gradient-6" x1="-8856.73" y1="-6079.42" x2="-8570.84" y2="-6079.42" gradientTransform="matrix(0, 1, 1, 0, 6194.27, 8856.06)" xlink:href="#linear-gradient"/><linearGradient id="linear-gradient-7" x1="-3178.15" y1="883.12" x2="-3178.15" y2="911.66" gradientTransform="matrix(1, 0, 0, -1, 3327.72, 1152.5)" xlink:href="#linear-gradient-2"/><radialGradient id="radial-gradient-5" cx="-3197.05" cy="897.2" r="19.97" gradientTransform="matrix(-1, 0, 0, 1, -3028.58, -641.77)" xlink:href="#radial-gradient"/><linearGradient id="linear-gradient-8" x1="-3178.15" y1="808.83" x2="-3178.15" y2="837.37" gradientTransform="matrix(1, 0, 0, -1, 3327.72, 1003.92)" xlink:href="#linear-gradient-2"/><radialGradient id="radial-gradient-6" cx="-3197.05" cy="822.91" r="19.97" gradientTransform="matrix(-1, 0, 0, 1, -3028.58, -641.77)" xlink:href="#radial-gradient"/><linearGradient id="linear-gradient-9" x1="-3178.15" y1="734.54" x2="-3178.15" y2="763.08" gradientTransform="matrix(1, 0, 0, -1, 3327.72, 855.34)" xlink:href="#linear-gradient-2"/><radialGradient id="radial-gradient-7" cx="-3197.05" cy="748.62" r="19.97" gradientTransform="matrix(-1, 0, 0, 1, -3028.58, -641.77)" xlink:href="#radial-gradient"/><linearGradient id="linear-gradient-10" x1="-3178.15" y1="660.25" x2="-3178.15" y2="688.79" gradientTransform="matrix(1, 0, 0, -1, 3327.72, 706.76)" xlink:href="#linear-gradient-2"/><radialGradient id="radial-gradient-8" cx="-3197.05" cy="674.33" r="19.97" gradientTransform="matrix(-1, 0, 0, 1, -3028.58, -641.77)" xlink:href="#radial-gradient"/></defs><g id="Layer_2" data-name="Layer 2"><g id="Layer_1-2" data-name="Layer 1"><path d="M83.81,0H29a7.28,7.28,0,0,0-7.29,7.28v273.3A7.29,7.29,0,0,0,29,287.87h54.8Z" fill="url(#linear-gradient)"/><rect x="14.37" y="240.97" width="7.34" height="28.8" fill="url(#linear-gradient-2)"/><path d="M14.37,241a14.38,14.38,0,0,0,0,28.75Z" fill="url(#radial-gradient)"/><rect x="14.37" y="166.68" width="7.34" height="28.8" fill="url(#linear-gradient-3)"/><path d="M14.37,166.7a14.38,14.38,0,0,0,0,28.75Z" fill="url(#radial-gradient-2)"/><rect x="14.37" y="92.39" width="7.34" height="28.8" fill="url(#linear-gradient-4)"/><path d="M14.37,92.41a14.38,14.38,0,0,0,0,28.75Z" fill="url(#radial-gradient-3)"/><rect x="14.37" y="18.1" width="7.34" height="28.8" fill="url(#linear-gradient-5)"/><path d="M14.37,18.12a14.38,14.38,0,0,0,0,28.75Z" fill="url(#radial-gradient-4)"/><path d="M83.81,0h54.8a7.28,7.28,0,0,1,7.29,7.28v273.3a7.29,7.29,0,0,1-7.29,7.29H83.81Z" fill="url(#linear-gradient-6)"/><rect x="145.9" y="240.97" width="7.34" height="28.8" transform="translate(299.15 510.74) rotate(180)" fill="url(#linear-gradient-7)"/><path d="M153.24,241a14.38,14.38,0,1,1,0,28.75Z" fill="url(#radial-gradient-5)"/><rect x="145.9" y="166.68" width="7.34" height="28.8" transform="translate(299.15 362.16) rotate(180)" fill="url(#linear-gradient-8)"/><path d="M153.24,166.7a14.38,14.38,0,1,1,0,28.75Z" fill="url(#radial-gradient-6)"/><rect x="145.9" y="92.39" width="7.34" height="28.8" transform="translate(299.15 213.58) rotate(180)" fill="url(#linear-gradient-9)"/><path d="M153.24,92.41a14.38,14.38,0,1,1,0,28.75Z" fill="url(#radial-gradient-7)"/><rect x="145.9" y="18.1" width="7.34" height="28.8" transform="translate(299.15 64.99) rotate(180)" fill="url(#linear-gradient-10)"/><path d="M153.24,18.12a14.38,14.38,0,1,1,0,28.75Z" fill="url(#radial-gradient-8)"/></g></g></svg>