<svg xmlns="http://www.w3.org/2000/svg" xmlns:xlink="http://www.w3.org/1999/xlink" viewBox="0 0 982.81 498.12"><defs><linearGradient id="linear-gradient" x1="-1338.59" y1="-3536.03" x2="-1114.52" y2="-3536.03" gradientTransform="matrix(0, -1, -1, 0, -2930.7, -872.37)" gradientUnits="userSpaceOnUse"><stop offset="0" stop-color="#585a5b"/><stop offset="0.32" stop-color="#e7e7e8"/><stop offset="0.37" stop-color="#dbdbdd"/><stop offset="0.45" stop-color="#babbbe"/><stop offset="0.47" stop-color="#b4b5b9"/><stop offset="0.66" stop-color="#96979b"/><stop offset="0.8" stop-color="#757578"/><stop offset="0.92" stop-color="#606062"/><stop offset="1" stop-color="#58585a"/></linearGradient><linearGradient id="linear-gradient-2" x1="493.29" y1="234.95" x2="717.36" y2="234.95" gradientTransform="matrix(1, 0, 0, 1, 0, 0)" xlink:href="#linear-gradient"/><linearGradient id="linear-gradient-3" x1="501.92" y1="134.56" x2="698.59" y2="134.56" gradientTransform="matrix(1, 0, 0, 1, 0, 0)" xlink:href="#linear-gradient"/><linearGradient id="linear-gradient-4" x1="525.75" y1="115.2" x2="674.97" y2="115.2" gradientTransform="matrix(1, 0, 0, 1, 0, 0)" xlink:href="#linear-gradient"/><linearGradient id="linear-gradient-5" x1="564.15" y1="100.63" x2="634.27" y2="100.63" gradientTransform="matrix(1, 0, 0, 1, 0, 0)" xlink:href="#linear-gradient"/><linearGradient id="linear-gradient-6" x1="582.08" y1="45.11" x2="617.36" y2="45.11" gradientTransform="matrix(1, 0, 0, 1, 0, 0)" xlink:href="#linear-gradient"/><linearGradient id="linear-gradient-7" x1="477.96" y1="31.28" x2="477.96" y2="57.31" gradientUnits="userSpaceOnUse"><stop offset="0" stop-color="#a7a9ac"/><stop offset="0.55" stop-color="#f1f2f2"/><stop offset="1" stop-color="#a7a9ac"/></linearGradient><linearGradient id="linear-gradient-8" x1="553.56" y1="44.42" x2="645.16" y2="44.42" gradientUnits="userSpaceOnUse"><stop offset="0" stop-color="#6a1617"/><stop offset="0.55" stop-color="#a21e24"/><stop offset="1" stop-color="#6a1617"/></linearGradient><linearGradient id="linear-gradient-9" x1="240.69" y1="22.33" x2="240.69" y2="68.15" xlink:href="#linear-gradient-8"/><linearGradient id="linear-gradient-10" x1="-4811.89" y1="-10745.76" x2="-4526.01" y2="-10745.76" gradientTransform="translate(-9793.99 5021.47) rotate(90)" gradientUnits="userSpaceOnUse"><stop offset="0" stop-color="#58585a"/><stop offset="0.08" stop-color="#606062"/><stop offset="0.2" stop-color="#757578"/><stop offset="0.34" stop-color="#96979b"/><stop offset="0.53" stop-color="#b4b5b9"/><stop offset="0.55" stop-color="#babbbe"/><stop offset="0.63" stop-color="#dbdbdd"/><stop offset="0.68" stop-color="#e7e7e8"/><stop offset="1" stop-color="#585a5b"/></linearGradient><linearGradient id="linear-gradient-11" x1="21.55" y1="1093.37" x2="21.55" y2="1121.91" gradientTransform="translate(895.5 -641.77)" gradientUnits="userSpaceOnUse"><stop offset="0" stop-color="#414042"/><stop offset="0.51" stop-color="#6d6e71"/><stop offset="0.99" stop-color="#414042"/></linearGradient><radialGradient id="radial-gradient" cx="2.65" cy="1107.45" r="19.97" gradientTransform="translate(895.5 -641.77)" gradientUnits="userSpaceOnUse"><stop offset="0" stop-color="#6d6e71"/><stop offset="1" stop-color="#414042"/></radialGradient><linearGradient id="linear-gradient-12" x1="21.55" y1="1019.08" x2="21.55" y2="1047.62" xlink:href="#linear-gradient-11"/><radialGradient id="radial-gradient-2" cx="2.65" cy="1033.16" r="19.97" xlink:href="#radial-gradient"/><linearGradient id="linear-gradient-13" x1="21.55" y1="944.79" x2="21.55" y2="973.33" xlink:href="#linear-gradient-11"/><radialGradient id="radial-gradient-3" cx="2.65" cy="958.87" r="19.97" xlink:href="#radial-gradient"/><linearGradient id="linear-gradient-14" x1="21.55" y1="870.5" x2="21.55" y2="899.04" xlink:href="#linear-gradient-11"/><radialGradient id="radial-gradient-4" cx="2.65" cy="884.58" r="19.97" xlink:href="#radial-gradient"/><linearGradient id="linear-gradient-15" x1="395.47" y1="-14500.74" x2="681.35" y2="-14500.74" gradientTransform="translate(14759.61 894.25) rotate(-90)" xlink:href="#linear-gradient"/><linearGradient id="linear-gradient-16" x1="3776.53" y1="6300.73" x2="3776.53" y2="6329.27" gradientTransform="translate(-3482.94 -6071.99)" xlink:href="#linear-gradient-11"/><radialGradient id="radial-gradient-5" cx="3757.63" cy="6314.81" r="19.97" gradientTransform="translate(4070.12 6557.49) rotate(180)" xlink:href="#radial-gradient"/><linearGradient id="linear-gradient-17" x1="3776.53" y1="6226.44" x2="3776.53" y2="6254.98" gradientTransform="translate(-3482.94 -5923.41)" xlink:href="#linear-gradient-11"/><radialGradient id="radial-gradient-6" cx="3757.63" cy="6240.52" r="19.97" gradientTransform="translate(4070.12 6557.49) rotate(180)" xlink:href="#radial-gradient"/><linearGradient id="linear-gradient-18" x1="3776.53" y1="6152.15" x2="3776.53" y2="6180.69" gradientTransform="translate(-3482.94 -5774.83)" xlink:href="#linear-gradient-11"/><radialGradient id="radial-gradient-7" cx="3757.63" cy="6166.22" r="19.97" gradientTransform="translate(4070.12 6557.49) rotate(180)" xlink:href="#radial-gradient"/><linearGradient id="linear-gradient-19" x1="3776.53" y1="6077.86" x2="3776.53" y2="6106.4" gradientTransform="translate(-3482.94 -5626.25)" xlink:href="#linear-gradient-11"/><radialGradient id="radial-gradient-8" cx="3757.63" cy="6091.93" r="19.97" gradientTransform="translate(4070.12 6557.49) rotate(180)" xlink:href="#radial-gradient"/></defs><g id="Layer_2" data-name="Layer 2"><g id="Layer_1-2" data-name="Layer 1"><rect x="289.91" y="242.15" width="630.83" height="224.07" fill="url(#linear-gradient)"/><path d="M709.62,149.76H501a7.75,7.75,0,0,0-7.74,7.74v84.65l112,78,112-78V157.5A7.74,7.74,0,0,0,709.62,149.76Z" fill="url(#linear-gradient-2)"/><path d="M674.27,119.37H526.21A23.59,23.59,0,0,0,502.62,143v6.8H697.86V143A23.59,23.59,0,0,0,674.27,119.37Z" fill="url(#linear-gradient-3)"/><rect x="525.75" y="111.04" width="148.98" height="8.33" fill="url(#linear-gradient-4)"/><rect x="562.99" y="90.22" width="74.49" height="20.82" fill="url(#linear-gradient-5)"/><path d="M594,0h12.45A12.51,12.51,0,0,1,619,12.51V90.22a0,0,0,0,1,0,0H581.5a0,0,0,0,1,0,0V12.51A12.51,12.51,0,0,1,594,0Z" fill="url(#linear-gradient-6)"/><rect x="353.47" y="31.23" width="248.97" height="26.37" fill="url(#linear-gradient-7)"/><rect x="553.56" y="8.34" width="91.6" height="72.17" rx="20.5" fill="url(#linear-gradient-8)"/><path d="M472.84,66.69H22.27A22.27,22.27,0,0,1,0,44.42H0A22.27,22.27,0,0,1,22.27,22.15H472.84a8.53,8.53,0,0,1,8.53,8.53V58.16A8.53,8.53,0,0,1,472.84,66.69Z" fill="url(#linear-gradient-9)"/><path d="M982.81,210.25H928a7.28,7.28,0,0,0-7.28,7.29v273.3a7.28,7.28,0,0,0,7.28,7.28h54.8Z" fill="url(#linear-gradient-10)"/><rect x="913.38" y="451.22" width="7.34" height="28.8" fill="url(#linear-gradient-11)"/><path d="M913.38,451.25a14.38,14.38,0,1,0,0,28.75Z" fill="url(#radial-gradient)"/><rect x="913.38" y="376.93" width="7.34" height="28.8" fill="url(#linear-gradient-12)"/><path d="M913.38,377a14.38,14.38,0,1,0,0,28.75Z" fill="url(#radial-gradient-2)"/><rect x="913.38" y="302.64" width="7.34" height="28.8" fill="url(#linear-gradient-13)"/><path d="M913.38,302.67a14.37,14.37,0,1,0,0,28.74Z" fill="url(#radial-gradient-3)"/><rect x="913.38" y="228.35" width="7.34" height="28.8" fill="url(#linear-gradient-14)"/><path d="M913.38,228.37a14.38,14.38,0,1,0,0,28.75Z" fill="url(#radial-gradient-4)"/><path d="M227.83,498.12h54.8a7.28,7.28,0,0,0,7.29-7.28V217.54a7.29,7.29,0,0,0-7.29-7.29h-54.8Z" fill="url(#linear-gradient-15)"/><rect x="289.92" y="228.35" width="7.34" height="28.8" transform="translate(587.18 485.5) rotate(180)" fill="url(#linear-gradient-16)"/><path d="M297.26,257.12a14.37,14.37,0,1,0,0-28.74Z" fill="url(#radial-gradient-5)"/><rect x="289.92" y="302.64" width="7.34" height="28.8" transform="translate(587.18 634.08) rotate(180)" fill="url(#linear-gradient-17)"/><path d="M297.26,331.42a14.38,14.38,0,1,0,0-28.75Z" fill="url(#radial-gradient-6)"/><rect x="289.92" y="376.93" width="7.34" height="28.8" transform="translate(587.18 782.66) rotate(180)" fill="url(#linear-gradient-18)"/><path d="M297.26,405.71a14.38,14.38,0,1,0,0-28.75Z" fill="url(#radial-gradient-7)"/><rect x="289.92" y="451.22" width="7.34" height="28.8" transform="translate(587.18 931.24) rotate(180)" fill="url(#linear-gradient-19)"/><path d="M297.26,480a14.38,14.38,0,1,0,0-28.75Z" fill="url(#radial-gradient-8)"/></g></g></svg>