<svg xmlns="http://www.w3.org/2000/svg" xmlns:xlink="http://www.w3.org/1999/xlink" viewBox="0 0 755 755"><defs><linearGradient id="linear-gradient" x1="3112.4" y1="1166.11" x2="3336.48" y2="1166.11" gradientTransform="matrix(0, -1, -1, 0, 1543.61, 3601.94)" gradientUnits="userSpaceOnUse"><stop offset="0" stop-color="#585a5b"/><stop offset="0.32" stop-color="#e7e7e8"/><stop offset="0.37" stop-color="#dbdbdd"/><stop offset="0.45" stop-color="#babbbe"/><stop offset="0.47" stop-color="#b4b5b9"/><stop offset="0.66" stop-color="#96979b"/><stop offset="0.8" stop-color="#757578"/><stop offset="0.92" stop-color="#606062"/><stop offset="1" stop-color="#58585a"/></linearGradient><linearGradient id="linear-gradient-2" x1="265.47" y1="202.81" x2="489.54" y2="202.81" gradientTransform="matrix(1, 0, 0, 1, 0, 0)" xlink:href="#linear-gradient"/><linearGradient id="linear-gradient-3" x1="4727.03" y1="5214.81" x2="4951.1" y2="5214.81" gradientTransform="translate(5216.57 5767.04) rotate(180)" gradientUnits="userSpaceOnUse"><stop offset="0" stop-color="#58585a"/><stop offset="0.08" stop-color="#606062"/><stop offset="0.2" stop-color="#757578"/><stop offset="0.34" stop-color="#96979b"/><stop offset="0.53" stop-color="#b4b5b9"/><stop offset="0.55" stop-color="#babbbe"/><stop offset="0.63" stop-color="#dbdbdd"/><stop offset="0.68" stop-color="#e7e7e8"/><stop offset="1" stop-color="#585a5b"/></linearGradient><linearGradient id="linear-gradient-4" x1="1363.19" y1="475.86" x2="1649.07" y2="475.86" gradientTransform="matrix(0, -1, -1, 0, 1199.82, 1885.29)" xlink:href="#linear-gradient"/><linearGradient id="linear-gradient-5" x1="-6725.76" y1="8516.95" x2="-6725.76" y2="8545.5" gradientTransform="matrix(1, 0, 0, -1, 7415, 8797.03)" gradientUnits="userSpaceOnUse"><stop offset="0" stop-color="#414042"/><stop offset="0.51" stop-color="#6d6e71"/><stop offset="0.99" stop-color="#414042"/></linearGradient><radialGradient id="radial-gradient" cx="-6744.66" cy="8531.03" r="19.97" gradientTransform="matrix(1, 0, 0, -1, 7415, 8797.03)" gradientUnits="userSpaceOnUse"><stop offset="0" stop-color="#6d6e71"/><stop offset="1" stop-color="#414042"/></radialGradient><linearGradient id="linear-gradient-6" x1="-6725.76" y1="8442.66" x2="-6725.76" y2="8471.2" xlink:href="#linear-gradient-5"/><radialGradient id="radial-gradient-2" cx="-6744.66" cy="8456.74" r="19.97" xlink:href="#radial-gradient"/><linearGradient id="linear-gradient-7" x1="-6725.76" y1="8368.37" x2="-6725.76" y2="8396.91" xlink:href="#linear-gradient-5"/><radialGradient id="radial-gradient-3" cx="-6744.66" cy="8382.45" r="19.97" xlink:href="#radial-gradient"/><linearGradient id="linear-gradient-8" x1="-6725.76" y1="8294.08" x2="-6725.76" y2="8322.62" xlink:href="#linear-gradient-5"/><radialGradient id="radial-gradient-4" cx="-6744.66" cy="8308.16" r="19.97" xlink:href="#radial-gradient"/><linearGradient id="linear-gradient-9" x1="1363.19" y1="-6662.74" x2="1649.07" y2="-6662.74" gradientTransform="translate(6693.78 1885.29) rotate(-90)" xlink:href="#linear-gradient"/><linearGradient id="linear-gradient-10" x1="412.84" y1="8516.95" x2="412.84" y2="8545.5" gradientTransform="translate(-347.08 -8264.9)" xlink:href="#linear-gradient-5"/><radialGradient id="radial-gradient-5" cx="393.94" cy="8531.03" r="19.97" gradientTransform="translate(478.61 8797.03) rotate(180)" xlink:href="#radial-gradient"/><linearGradient id="linear-gradient-11" x1="412.84" y1="8442.66" x2="412.84" y2="8471.2" gradientTransform="translate(-347.08 -8116.32)" xlink:href="#linear-gradient-5"/><radialGradient id="radial-gradient-6" cx="393.94" cy="8456.74" r="19.97" gradientTransform="translate(478.61 8797.03) rotate(180)" xlink:href="#radial-gradient"/><linearGradient id="linear-gradient-12" x1="412.84" y1="8368.37" x2="412.84" y2="8396.91" gradientTransform="translate(-347.08 -7967.74)" xlink:href="#linear-gradient-5"/><radialGradient id="radial-gradient-7" cx="393.94" cy="8382.45" r="19.97" gradientTransform="translate(478.61 8797.03) rotate(180)" xlink:href="#radial-gradient"/><linearGradient id="linear-gradient-13" x1="412.84" y1="8294.08" x2="412.84" y2="8322.62" gradientTransform="translate(-347.08 -7819.16)" xlink:href="#linear-gradient-5"/><radialGradient id="radial-gradient-8" cx="393.94" cy="8308.16" r="19.97" gradientTransform="translate(478.61 8797.03) rotate(180)" xlink:href="#radial-gradient"/><linearGradient id="linear-gradient-14" x1="1703.93" y1="-7276.59" x2="1989.82" y2="-7276.59" gradientTransform="matrix(-1, 0, 0, 1, 2226.04, 7307.63)" xlink:href="#linear-gradient-3"/><linearGradient id="linear-gradient-15" x1="1026.69" y1="8857.7" x2="1026.69" y2="8886.24" gradientTransform="matrix(1, 0, 0, -1, -760.62, 8937.48)" xlink:href="#linear-gradient-5"/><radialGradient id="radial-gradient-9" cx="1007.79" cy="8871.78" r="19.97" gradientTransform="matrix(0, -1, -1, 0, 9137.78, 1092.45)" xlink:href="#radial-gradient"/><linearGradient id="linear-gradient-16" x1="1026.69" y1="8783.41" x2="1026.69" y2="8811.95" gradientTransform="matrix(1, 0, 0, -1, -686.33, 8863.19)" xlink:href="#linear-gradient-5"/><radialGradient id="radial-gradient-10" cx="1007.79" cy="8797.49" r="19.97" gradientTransform="matrix(0, -1, -1, 0, 9137.78, 1092.45)" xlink:href="#radial-gradient"/><linearGradient id="linear-gradient-17" x1="1026.69" y1="8709.12" x2="1026.69" y2="8737.66" gradientTransform="matrix(1, 0, 0, -1, -612.04, 8788.9)" xlink:href="#linear-gradient-5"/><radialGradient id="radial-gradient-11" cx="1007.79" cy="8723.2" r="19.97" gradientTransform="matrix(0, -1, -1, 0, 9137.78, 1092.45)" xlink:href="#radial-gradient"/><linearGradient id="linear-gradient-18" x1="1026.69" y1="8634.83" x2="1026.69" y2="8663.37" gradientTransform="matrix(1, 0, 0, -1, -537.75, 8714.61)" xlink:href="#linear-gradient-5"/><radialGradient id="radial-gradient-12" cx="1007.79" cy="8648.91" r="19.97" gradientTransform="matrix(0, -1, -1, 0, 9137.78, 1092.45)" xlink:href="#radial-gradient"/><linearGradient id="linear-gradient-19" x1="1703.93" y1="1089.71" x2="1989.82" y2="1089.71" gradientTransform="translate(2226.04 1813.67) rotate(180)" xlink:href="#linear-gradient-3"/><linearGradient id="linear-gradient-20" x1="-7339.61" y1="8857.7" x2="-7339.61" y2="8886.24" gradientTransform="translate(7605.67 -8182.47)" xlink:href="#linear-gradient-5"/><radialGradient id="radial-gradient-13" cx="-7358.51" cy="8871.78" r="19.97" gradientTransform="translate(9137.78 8028.84) rotate(90)" xlink:href="#radial-gradient"/><linearGradient id="linear-gradient-21" x1="-7339.61" y1="8783.41" x2="-7339.61" y2="8811.95" gradientTransform="translate(7679.96 -8108.18)" xlink:href="#linear-gradient-5"/><radialGradient id="radial-gradient-14" cx="-7358.51" cy="8797.49" r="19.97" gradientTransform="translate(9137.78 8028.84) rotate(90)" xlink:href="#radial-gradient"/><linearGradient id="linear-gradient-22" x1="-7339.61" y1="8709.12" x2="-7339.61" y2="8737.66" gradientTransform="translate(7754.25 -8033.89)" xlink:href="#linear-gradient-5"/><radialGradient id="radial-gradient-15" cx="-7358.51" cy="8723.2" r="19.97" gradientTransform="translate(9137.78 8028.84) rotate(90)" xlink:href="#radial-gradient"/><linearGradient id="linear-gradient-23" x1="-7339.61" y1="8634.83" x2="-7339.61" y2="8663.37" gradientTransform="translate(7828.54 -7959.6)" xlink:href="#linear-gradient-5"/><radialGradient id="radial-gradient-16" cx="-7358.51" cy="8648.91" r="19.97" gradientTransform="translate(9137.78 8028.84) rotate(90)" xlink:href="#radial-gradient"/></defs><g id="Layer_2" data-name="Layer 2"><g id="Layer_1-2" data-name="Layer 1"><rect x="62.09" y="265.46" width="630.83" height="224.07" fill="url(#linear-gradient)"/><polygon points="489.54 62.09 489.54 265.47 377.5 343.54 265.47 265.47 265.47 62.09 489.54 62.09" fill="url(#linear-gradient-2)"/><polygon points="265.47 692.91 265.47 489.54 377.5 411.55 489.54 489.54 489.54 692.91 265.47 692.91" fill="url(#linear-gradient-3)"/><path d="M755,521.43H700.2a7.28,7.28,0,0,1-7.28-7.28V240.85a7.28,7.28,0,0,1,7.28-7.28H755Z" fill="url(#linear-gradient-4)"/><rect x="685.57" y="251.67" width="7.34" height="28.8" fill="url(#linear-gradient-5)"/><path d="M685.57,280.44a14.38,14.38,0,1,1,0-28.75Z" fill="url(#radial-gradient)"/><rect x="685.57" y="325.96" width="7.34" height="28.8" fill="url(#linear-gradient-6)"/><path d="M685.57,354.73a14.38,14.38,0,1,1,0-28.75Z" fill="url(#radial-gradient-2)"/><rect x="685.57" y="400.25" width="7.34" height="28.8" fill="url(#linear-gradient-7)"/><path d="M685.57,429a14.38,14.38,0,1,1,0-28.75Z" fill="url(#radial-gradient-3)"/><rect x="685.57" y="474.54" width="7.34" height="28.8" fill="url(#linear-gradient-8)"/><path d="M685.57,503.31a14.38,14.38,0,1,1,0-28.75Z" fill="url(#radial-gradient-4)"/><path d="M0,521.43H54.8a7.28,7.28,0,0,0,7.29-7.28V240.85a7.28,7.28,0,0,0-7.29-7.28H0Z" fill="url(#linear-gradient-9)"/><rect x="62.09" y="251.67" width="7.34" height="28.8" transform="translate(131.53 532.13) rotate(180)" fill="url(#linear-gradient-10)"/><path d="M69.43,280.44a14.38,14.38,0,1,0,0-28.75Z" fill="url(#radial-gradient-5)"/><rect x="62.09" y="325.96" width="7.34" height="28.8" transform="translate(131.53 680.71) rotate(180)" fill="url(#linear-gradient-11)"/><path d="M69.43,354.73a14.38,14.38,0,1,0,0-28.75Z" fill="url(#radial-gradient-6)"/><rect x="62.09" y="400.25" width="7.34" height="28.8" transform="translate(131.53 829.29) rotate(180)" fill="url(#linear-gradient-12)"/><path d="M69.43,429a14.38,14.38,0,1,0,0-28.75Z" fill="url(#radial-gradient-7)"/><rect x="62.09" y="474.54" width="7.34" height="28.8" transform="translate(131.53 977.87) rotate(180)" fill="url(#linear-gradient-13)"/><path d="M69.43,503.31a14.38,14.38,0,1,0,0-28.75Z" fill="url(#radial-gradient-8)"/><path d="M521.43,0V54.8a7.28,7.28,0,0,1-7.28,7.29H240.85a7.28,7.28,0,0,1-7.28-7.29V0Z" fill="url(#linear-gradient-14)"/><rect x="262.39" y="51.36" width="7.34" height="28.8" transform="translate(200.3 331.83) rotate(-90)" fill="url(#linear-gradient-15)"/><path d="M280.44,69.43a14.38,14.38,0,1,1-28.75,0Z" fill="url(#radial-gradient-9)"/><rect x="336.68" y="51.36" width="7.34" height="28.8" transform="translate(274.59 406.12) rotate(-90)" fill="url(#linear-gradient-16)"/><path d="M354.73,69.43a14.38,14.38,0,1,1-28.75,0Z" fill="url(#radial-gradient-10)"/><rect x="410.97" y="51.36" width="7.34" height="28.8" transform="translate(348.88 480.41) rotate(-90)" fill="url(#linear-gradient-17)"/><path d="M429,69.43a14.38,14.38,0,1,1-28.75,0Z" fill="url(#radial-gradient-11)"/><rect x="485.26" y="51.36" width="7.34" height="28.8" transform="translate(423.17 554.7) rotate(-90)" fill="url(#linear-gradient-18)"/><path d="M503.31,69.43a14.38,14.38,0,1,1-28.75,0Z" fill="url(#radial-gradient-12)"/><path d="M521.43,755V700.2a7.28,7.28,0,0,0-7.28-7.28H240.85a7.28,7.28,0,0,0-7.28,7.28V755Z" fill="url(#linear-gradient-19)"/><rect x="262.39" y="674.84" width="7.34" height="28.8" transform="translate(955.3 423.17) rotate(90)" fill="url(#linear-gradient-20)"/><path d="M280.44,685.57a14.38,14.38,0,1,0-28.75,0Z" fill="url(#radial-gradient-13)"/><rect x="336.68" y="674.84" width="7.34" height="28.8" transform="translate(1029.59 348.88) rotate(90)" fill="url(#linear-gradient-21)"/><path d="M354.73,685.57a14.38,14.38,0,1,0-28.75,0Z" fill="url(#radial-gradient-14)"/><rect x="410.97" y="674.84" width="7.34" height="28.8" transform="translate(1103.88 274.59) rotate(90)" fill="url(#linear-gradient-22)"/><path d="M429,685.57a14.38,14.38,0,1,0-28.75,0Z" fill="url(#radial-gradient-15)"/><rect x="485.26" y="674.84" width="7.34" height="28.8" transform="translate(1178.17 200.3) rotate(90)" fill="url(#linear-gradient-23)"/><path d="M503.31,685.57a14.38,14.38,0,1,0-28.75,0Z" fill="url(#radial-gradient-16)"/></g></g></svg>