<svg xmlns="http://www.w3.org/2000/svg" xmlns:xlink="http://www.w3.org/1999/xlink" viewBox="0 0 1171.39 414.61"><defs><linearGradient id="linear-gradient" x1="2249.44" y1="-11.87" x2="2473.51" y2="-11.87" gradientTransform="matrix(0, -1, -1, 0, 573.82, 2632.15)" gradientUnits="userSpaceOnUse"><stop offset="0" stop-color="#585a5b"/><stop offset="0.32" stop-color="#e7e7e8"/><stop offset="0.37" stop-color="#dbdbdd"/><stop offset="0.45" stop-color="#babbbe"/><stop offset="0.47" stop-color="#b4b5b9"/><stop offset="0.66" stop-color="#96979b"/><stop offset="0.8" stop-color="#757578"/><stop offset="0.92" stop-color="#606062"/><stop offset="1" stop-color="#58585a"/></linearGradient><linearGradient id="linear-gradient-2" x1="473.66" y1="149.4" x2="697.73" y2="149.4" gradientTransform="matrix(1, 0, 0, 1, 0, 0)" xlink:href="#linear-gradient"/><linearGradient id="linear-gradient-3" x1="-6914.82" y1="-7429.82" x2="-6628.94" y2="-7429.82" gradientTransform="translate(-6289.47 7040.9) rotate(90)" gradientUnits="userSpaceOnUse"><stop offset="0" stop-color="#58585a"/><stop offset="0.08" stop-color="#606062"/><stop offset="0.2" stop-color="#757578"/><stop offset="0.34" stop-color="#96979b"/><stop offset="0.53" stop-color="#b4b5b9"/><stop offset="0.55" stop-color="#babbbe"/><stop offset="0.63" stop-color="#dbdbdd"/><stop offset="0.68" stop-color="#e7e7e8"/><stop offset="1" stop-color="#585a5b"/></linearGradient><linearGradient id="linear-gradient-4" x1="210.13" y1="1009.86" x2="210.13" y2="1038.4" gradientTransform="translate(895.5 -641.77)" gradientUnits="userSpaceOnUse"><stop offset="0" stop-color="#414042"/><stop offset="0.51" stop-color="#6d6e71"/><stop offset="0.99" stop-color="#414042"/></linearGradient><radialGradient id="radial-gradient" cx="191.23" cy="1023.94" r="19.97" gradientTransform="translate(895.5 -641.77)" gradientUnits="userSpaceOnUse"><stop offset="0" stop-color="#6d6e71"/><stop offset="1" stop-color="#414042"/></radialGradient><linearGradient id="linear-gradient-5" x1="210.13" y1="935.57" x2="210.13" y2="964.11" xlink:href="#linear-gradient-4"/><radialGradient id="radial-gradient-2" cx="191.23" cy="949.65" r="19.97" xlink:href="#radial-gradient"/><linearGradient id="linear-gradient-6" x1="210.13" y1="861.28" x2="210.13" y2="889.82" xlink:href="#linear-gradient-4"/><radialGradient id="radial-gradient-3" cx="191.23" cy="875.36" r="19.97" xlink:href="#radial-gradient"/><linearGradient id="linear-gradient-7" x1="210.13" y1="786.99" x2="210.13" y2="815.53" xlink:href="#linear-gradient-4"/><radialGradient id="radial-gradient-4" cx="191.23" cy="801.07" r="19.97" xlink:href="#radial-gradient"/><linearGradient id="linear-gradient-8" x1="-6090.19" y1="-7524.05" x2="-5804.3" y2="-7524.05" gradientTransform="translate(6531.28 7555.1)" xlink:href="#linear-gradient"/><linearGradient id="linear-gradient-9" x1="304.37" y1="1834.5" x2="304.37" y2="1863.04" gradientTransform="translate(392.76 -1782.75)" xlink:href="#linear-gradient-4"/><radialGradient id="radial-gradient-5" cx="285.46" cy="1848.58" r="19.97" gradientTransform="translate(-1151.38 370.13) rotate(-90)" xlink:href="#radial-gradient"/><linearGradient id="linear-gradient-10" x1="304.37" y1="1760.21" x2="304.37" y2="1788.75" gradientTransform="translate(318.47 -1708.46)" xlink:href="#linear-gradient-4"/><radialGradient id="radial-gradient-6" cx="285.46" cy="1774.29" r="19.97" gradientTransform="translate(-1151.38 370.13) rotate(-90)" xlink:href="#radial-gradient"/><linearGradient id="linear-gradient-11" x1="304.37" y1="1685.92" x2="304.37" y2="1714.46" gradientTransform="translate(244.18 -1634.17)" xlink:href="#linear-gradient-4"/><radialGradient id="radial-gradient-7" cx="285.46" cy="1699.99" r="19.97" gradientTransform="translate(-1151.38 370.13) rotate(-90)" xlink:href="#radial-gradient"/><linearGradient id="linear-gradient-12" x1="304.37" y1="1611.63" x2="304.37" y2="1640.17" gradientTransform="translate(169.89 -1559.88)" xlink:href="#linear-gradient-4"/><radialGradient id="radial-gradient-8" cx="285.46" cy="1625.7" r="19.97" gradientTransform="translate(-1151.38 370.13) rotate(-90)" xlink:href="#radial-gradient"/><linearGradient id="linear-gradient-13" x1="-6914.82" y1="-7978.39" x2="-6628.94" y2="-7978.39" gradientTransform="matrix(0, 1, 1, 0, 8009.44, 7040.9)" xlink:href="#linear-gradient-3"/><linearGradient id="linear-gradient-14" x1="758.71" y1="1009.86" x2="758.71" y2="1038.4" gradientTransform="matrix(1, 0, 0, -1, -692.94, 1405.98)" xlink:href="#linear-gradient-4"/><radialGradient id="radial-gradient-9" cx="739.8" cy="1023.94" r="19.97" gradientTransform="matrix(-1, 0, 0, 1, 824.47, -641.77)" xlink:href="#radial-gradient"/><linearGradient id="linear-gradient-15" x1="758.71" y1="935.57" x2="758.71" y2="964.11" gradientTransform="matrix(1, 0, 0, -1, -692.94, 1257.4)" xlink:href="#linear-gradient-4"/><radialGradient id="radial-gradient-10" cx="739.8" cy="949.65" r="19.97" gradientTransform="matrix(-1, 0, 0, 1, 824.47, -641.77)" xlink:href="#radial-gradient"/><linearGradient id="linear-gradient-16" x1="758.71" y1="861.28" x2="758.71" y2="889.82" gradientTransform="matrix(1, 0, 0, -1, -692.94, 1108.82)" xlink:href="#linear-gradient-4"/><radialGradient id="radial-gradient-11" cx="739.8" cy="875.36" r="19.97" gradientTransform="matrix(-1, 0, 0, 1, 824.47, -641.77)" xlink:href="#radial-gradient"/><linearGradient id="linear-gradient-17" x1="758.71" y1="786.99" x2="758.71" y2="815.53" gradientTransform="matrix(1, 0, 0, -1, -692.94, 960.24)" xlink:href="#linear-gradient-4"/><radialGradient id="radial-gradient-12" cx="739.8" cy="801.07" r="19.97" gradientTransform="matrix(-1, 0, 0, 1, 824.47, -641.77)" xlink:href="#radial-gradient"/></defs><g id="Layer_2" data-name="Layer 2"><g id="Layer_1-2" data-name="Layer 1"><rect x="62.08" y="158.64" width="1047.23" height="224.07" fill="url(#linear-gradient)"/><polygon points="697.73 62.09 697.73 158.64 585.69 236.71 473.66 158.64 473.66 62.09 697.73 62.09" fill="url(#linear-gradient-2)"/><path d="M1171.39,126.74h-54.8a7.28,7.28,0,0,0-7.28,7.28v273.3a7.28,7.28,0,0,0,7.28,7.29h54.8Z" fill="url(#linear-gradient-3)"/><rect x="1101.96" y="367.71" width="7.34" height="28.8" fill="url(#linear-gradient-4)"/><path d="M1102,367.73a14.38,14.38,0,1,0,0,28.75Z" fill="url(#radial-gradient)"/><rect x="1101.96" y="293.42" width="7.34" height="28.8" fill="url(#linear-gradient-5)"/><path d="M1102,293.44a14.38,14.38,0,1,0,0,28.75Z" fill="url(#radial-gradient-2)"/><rect x="1101.96" y="219.13" width="7.34" height="28.8" fill="url(#linear-gradient-6)"/><path d="M1102,219.15a14.38,14.38,0,1,0,0,28.75Z" fill="url(#radial-gradient-3)"/><rect x="1101.96" y="144.84" width="7.34" height="28.8" fill="url(#linear-gradient-7)"/><path d="M1102,144.86a14.38,14.38,0,1,0,0,28.75Z" fill="url(#radial-gradient-4)"/><path d="M441.76,0V54.8A7.28,7.28,0,0,0,449,62.09h273.3a7.28,7.28,0,0,0,7.28-7.29V0Z" fill="url(#linear-gradient-8)"/><rect x="693.45" y="51.36" width="7.34" height="28.8" transform="translate(631.36 762.89) rotate(-90)" fill="url(#linear-gradient-9)"/><path d="M682.75,69.43a14.38,14.38,0,1,0,28.75,0Z" fill="url(#radial-gradient-5)"/><rect x="619.16" y="51.36" width="7.34" height="28.8" transform="translate(557.07 688.6) rotate(-90)" fill="url(#linear-gradient-10)"/><path d="M608.46,69.43a14.38,14.38,0,1,0,28.75,0Z" fill="url(#radial-gradient-6)"/><rect x="544.87" y="51.36" width="7.34" height="28.8" transform="translate(482.78 614.31) rotate(-90)" fill="url(#linear-gradient-11)"/><path d="M534.17,69.43a14.38,14.38,0,1,0,28.75,0Z" fill="url(#radial-gradient-7)"/><rect x="470.58" y="51.36" width="7.34" height="28.8" transform="translate(408.49 540.02) rotate(-90)" fill="url(#linear-gradient-12)"/><path d="M459.88,69.43a14.38,14.38,0,1,0,28.75,0Z" fill="url(#radial-gradient-8)"/><path d="M0,126.74H54.8A7.28,7.28,0,0,1,62.09,134v273.3a7.29,7.29,0,0,1-7.29,7.29H0Z" fill="url(#linear-gradient-13)"/><rect x="62.09" y="367.71" width="7.34" height="28.8" transform="translate(131.53 764.22) rotate(180)" fill="url(#linear-gradient-14)"/><path d="M69.43,367.73a14.38,14.38,0,1,1,0,28.75Z" fill="url(#radial-gradient-9)"/><rect x="62.09" y="293.42" width="7.34" height="28.8" transform="translate(131.53 615.64) rotate(180)" fill="url(#linear-gradient-15)"/><path d="M69.43,293.44a14.38,14.38,0,1,1,0,28.75Z" fill="url(#radial-gradient-10)"/><rect x="62.09" y="219.13" width="7.34" height="28.8" transform="translate(131.53 467.06) rotate(180)" fill="url(#linear-gradient-16)"/><path d="M69.43,219.15a14.38,14.38,0,1,1,0,28.75Z" fill="url(#radial-gradient-11)"/><rect x="62.09" y="144.84" width="7.34" height="28.8" transform="translate(131.53 318.48) rotate(180)" fill="url(#linear-gradient-17)"/><path d="M69.43,144.86a14.38,14.38,0,1,1,0,28.75Z" fill="url(#radial-gradient-12)"/></g></g></svg>