<svg xmlns="http://www.w3.org/2000/svg" xmlns:xlink="http://www.w3.org/1999/xlink" viewBox="0 0 287.87 691.14"><defs><linearGradient id="linear-gradient" x1="2078.84" y1="-9236.89" x2="2302.91" y2="-9236.89" gradientTransform="matrix(1, 0, 0, -1, -2046.94, -8891.31)" gradientUnits="userSpaceOnUse"><stop offset="0" stop-color="#585a5b"/><stop offset="0.32" stop-color="#e7e7e8"/><stop offset="0.37" stop-color="#dbdbdd"/><stop offset="0.45" stop-color="#babbbe"/><stop offset="0.47" stop-color="#b4b5b9"/><stop offset="0.66" stop-color="#96979b"/><stop offset="0.8" stop-color="#757578"/><stop offset="0.92" stop-color="#606062"/><stop offset="1" stop-color="#58585a"/></linearGradient><linearGradient id="linear-gradient-2" x1="-1075.7" y1="-11670.31" x2="-789.82" y2="-11670.31" gradientTransform="translate(-787.17 -11010.21) rotate(180)" gradientUnits="userSpaceOnUse"><stop offset="0" stop-color="#58585a"/><stop offset="0.08" stop-color="#606062"/><stop offset="0.2" stop-color="#757578"/><stop offset="0.34" stop-color="#96979b"/><stop offset="0.53" stop-color="#b4b5b9"/><stop offset="0.55" stop-color="#babbbe"/><stop offset="0.63" stop-color="#dbdbdd"/><stop offset="0.68" stop-color="#e7e7e8"/><stop offset="1" stop-color="#585a5b"/></linearGradient><linearGradient id="linear-gradient-3" x1="4360.82" y1="4554.87" x2="4360.82" y2="4583.41" gradientTransform="translate(-4328.32 -3943.5)" gradientUnits="userSpaceOnUse"><stop offset="0" stop-color="#414042"/><stop offset="0.51" stop-color="#6d6e71"/><stop offset="0.99" stop-color="#414042"/></linearGradient><radialGradient id="radial-gradient" cx="4341.91" cy="4568.95" r="19.97" gradientTransform="translate(4601.38 -3735.43) rotate(90)" gradientUnits="userSpaceOnUse"><stop offset="0" stop-color="#6d6e71"/><stop offset="1" stop-color="#414042"/></radialGradient><linearGradient id="linear-gradient-4" x1="4360.82" y1="4480.58" x2="4360.82" y2="4509.12" gradientTransform="translate(-4254.03 -3869.21)" xlink:href="#linear-gradient-3"/><radialGradient id="radial-gradient-2" cx="4341.91" cy="4494.66" r="19.97" xlink:href="#radial-gradient"/><linearGradient id="linear-gradient-5" x1="4360.82" y1="4406.29" x2="4360.82" y2="4434.83" gradientTransform="translate(-4179.74 -3794.92)" xlink:href="#linear-gradient-3"/><radialGradient id="radial-gradient-3" cx="4341.91" cy="4420.37" r="19.97" xlink:href="#radial-gradient"/><linearGradient id="linear-gradient-6" x1="4360.82" y1="4332" x2="4360.82" y2="4360.54" gradientTransform="translate(-4105.45 -3720.63)" xlink:href="#linear-gradient-3"/><radialGradient id="radial-gradient-4" cx="4341.91" cy="4346.08" r="19.97" xlink:href="#radial-gradient"/><linearGradient id="linear-gradient-7" x1="-3680.19" y1="-12556.36" x2="-3394.31" y2="-12556.36" gradientTransform="translate(3679.52 12587.4)" xlink:href="#linear-gradient"/><linearGradient id="linear-gradient-8" x1="5246.86" y1="1950.38" x2="5246.86" y2="1978.92" gradientTransform="translate(-4991.49 -1898.63)" xlink:href="#linear-gradient-3"/><radialGradient id="radial-gradient-5" cx="5227.96" cy="1964.46" r="19.97" gradientTransform="translate(-1709.03 5312.62) rotate(-90)" xlink:href="#radial-gradient"/><linearGradient id="linear-gradient-9" x1="5246.86" y1="1876.09" x2="5246.86" y2="1904.63" gradientTransform="translate(-5065.78 -1824.34)" xlink:href="#linear-gradient-3"/><radialGradient id="radial-gradient-6" cx="5227.96" cy="1890.17" r="19.97" gradientTransform="translate(-1709.03 5312.62) rotate(-90)" xlink:href="#radial-gradient"/><linearGradient id="linear-gradient-10" x1="5246.86" y1="1801.8" x2="5246.86" y2="1830.34" gradientTransform="translate(-5140.07 -1750.05)" xlink:href="#linear-gradient-3"/><radialGradient id="radial-gradient-7" cx="5227.96" cy="1815.88" r="19.97" gradientTransform="translate(-1709.03 5312.62) rotate(-90)" xlink:href="#radial-gradient"/><linearGradient id="linear-gradient-11" x1="5246.86" y1="1727.51" x2="5246.86" y2="1756.05" gradientTransform="translate(-5214.36 -1675.76)" xlink:href="#linear-gradient-3"/><radialGradient id="radial-gradient-8" cx="5227.96" cy="1741.59" r="19.97" gradientTransform="translate(-1709.03 5312.62) rotate(-90)" xlink:href="#radial-gradient"/></defs><g id="Layer_2" data-name="Layer 2"><g id="Layer_1-2" data-name="Layer 1"><rect x="31.89" y="62.09" width="224.07" height="566.97" fill="url(#linear-gradient)"/><path d="M287.87,691.14v-54.8a7.29,7.29,0,0,0-7.29-7.28H7.28A7.28,7.28,0,0,0,0,636.34v54.8Z" fill="url(#linear-gradient-2)"/><rect x="28.83" y="610.99" width="7.34" height="28.8" transform="translate(657.88 592.89) rotate(90)" fill="url(#linear-gradient-3)"/><path d="M46.87,621.71a14.38,14.38,0,0,0-28.75,0Z" fill="url(#radial-gradient)"/><rect x="103.12" y="610.99" width="7.34" height="28.8" transform="translate(732.17 518.6) rotate(90)" fill="url(#linear-gradient-4)"/><path d="M121.16,621.71a14.38,14.38,0,0,0-28.75,0Z" fill="url(#radial-gradient-2)"/><rect x="177.41" y="610.99" width="7.34" height="28.8" transform="translate(806.46 444.31) rotate(90)" fill="url(#linear-gradient-5)"/><path d="M195.45,621.71a14.38,14.38,0,0,0-28.75,0Z" fill="url(#radial-gradient-3)"/><rect x="251.7" y="610.99" width="7.34" height="28.8" transform="translate(880.75 370.02) rotate(90)" fill="url(#linear-gradient-6)"/><path d="M269.74,621.71a14.38,14.38,0,0,0-28.75,0Z" fill="url(#radial-gradient-4)"/><path d="M0,0V54.8a7.28,7.28,0,0,0,7.28,7.29h273.3a7.29,7.29,0,0,0,7.29-7.29V0Z" fill="url(#linear-gradient-7)"/><rect x="251.7" y="51.36" width="7.34" height="28.8" transform="translate(189.61 321.13) rotate(-90)" fill="url(#linear-gradient-8)"/><path d="M241,69.43a14.38,14.38,0,1,0,28.75,0Z" fill="url(#radial-gradient-5)"/><rect x="177.41" y="51.36" width="7.34" height="28.8" transform="translate(115.32 246.84) rotate(-90)" fill="url(#linear-gradient-9)"/><path d="M166.7,69.43a14.38,14.38,0,1,0,28.75,0Z" fill="url(#radial-gradient-6)"/><rect x="103.12" y="51.36" width="7.34" height="28.8" transform="translate(41.02 172.55) rotate(-90)" fill="url(#linear-gradient-10)"/><path d="M92.41,69.43a14.38,14.38,0,1,0,28.75,0Z" fill="url(#radial-gradient-7)"/><rect x="28.83" y="51.36" width="7.34" height="28.8" transform="translate(-33.27 98.26) rotate(-90)" fill="url(#linear-gradient-11)"/><path d="M18.12,69.43a14.38,14.38,0,1,0,28.75,0Z" fill="url(#radial-gradient-8)"/></g></g></svg>