<svg xmlns="http://www.w3.org/2000/svg" xmlns:xlink="http://www.w3.org/1999/xlink" viewBox="0 0 552.78 287.87"><defs><linearGradient id="linear-gradient" x1="960.37" y1="-1118.38" x2="1184.45" y2="-1118.38" gradientTransform="matrix(0, -1, -1, 0, -841.99, 1216.34)" gradientUnits="userSpaceOnUse"><stop offset="0" stop-color="#585a5b"/><stop offset="0.32" stop-color="#e7e7e8"/><stop offset="0.37" stop-color="#dbdbdd"/><stop offset="0.45" stop-color="#babbbe"/><stop offset="0.47" stop-color="#b4b5b9"/><stop offset="0.66" stop-color="#96979b"/><stop offset="0.8" stop-color="#757578"/><stop offset="0.92" stop-color="#606062"/><stop offset="1" stop-color="#58585a"/></linearGradient><linearGradient id="linear-gradient-2" x1="720.75" y1="12881.21" x2="934.58" y2="12881.21" gradientTransform="matrix(0, -1, -1, 0, 13360.43, 971.6)" xlink:href="#linear-gradient"/><linearGradient id="linear-gradient-3" x1="-13653.76" y1="500.72" x2="-13653.76" y2="276.64" gradientTransform="translate(14202.42 -244.75)" gradientUnits="userSpaceOnUse"><stop offset="0" stop-color="#58585a"/><stop offset="0.08" stop-color="#606062"/><stop offset="0.2" stop-color="#757578"/><stop offset="0.34" stop-color="#96979b"/><stop offset="0.53" stop-color="#b4b5b9"/><stop offset="0.55" stop-color="#babbbe"/><stop offset="0.63" stop-color="#dbdbdd"/><stop offset="0.68" stop-color="#e7e7e8"/><stop offset="1" stop-color="#585a5b"/></linearGradient><linearGradient id="linear-gradient-4" x1="-13668.56" y1="500.72" x2="-13668.56" y2="276.64" xlink:href="#linear-gradient-3"/><linearGradient id="linear-gradient-5" x1="-13683.37" y1="500.72" x2="-13683.37" y2="276.64" xlink:href="#linear-gradient-3"/><linearGradient id="linear-gradient-6" x1="-13698.17" y1="500.72" x2="-13698.17" y2="276.64" xlink:href="#linear-gradient-3"/><linearGradient id="linear-gradient-7" x1="-13712.98" y1="500.72" x2="-13712.98" y2="276.64" xlink:href="#linear-gradient-3"/><linearGradient id="linear-gradient-8" x1="-13727.78" y1="500.72" x2="-13727.78" y2="276.64" xlink:href="#linear-gradient-3"/><linearGradient id="linear-gradient-9" x1="-13742.59" y1="500.72" x2="-13742.59" y2="276.64" xlink:href="#linear-gradient-3"/><linearGradient id="linear-gradient-10" x1="-13757.39" y1="500.72" x2="-13757.39" y2="276.64" xlink:href="#linear-gradient-3"/><linearGradient id="linear-gradient-11" x1="-8535.31" y1="-8345.49" x2="-8249.43" y2="-8345.49" gradientTransform="matrix(0, -1, -1, 0, -7950.4, -8246.78)" xlink:href="#linear-gradient"/><linearGradient id="linear-gradient-12" x1="720.75" y1="12584.62" x2="934.58" y2="12584.62" gradientTransform="translate(-12511.06 971.6) rotate(-90)" xlink:href="#linear-gradient"/><linearGradient id="linear-gradient-13" x1="-13357.17" y1="500.72" x2="-13357.17" y2="276.64" gradientTransform="matrix(-1, 0, 0, 1, -13353.05, -244.75)" xlink:href="#linear-gradient-3"/><linearGradient id="linear-gradient-14" x1="-13371.97" y1="500.72" x2="-13371.97" y2="276.64" gradientTransform="matrix(-1, 0, 0, 1, -13353.05, -244.75)" xlink:href="#linear-gradient-3"/><linearGradient id="linear-gradient-15" x1="-13386.78" y1="500.72" x2="-13386.78" y2="276.64" gradientTransform="matrix(-1, 0, 0, 1, -13353.05, -244.75)" xlink:href="#linear-gradient-3"/><linearGradient id="linear-gradient-16" x1="-13401.58" y1="500.72" x2="-13401.58" y2="276.64" gradientTransform="matrix(-1, 0, 0, 1, -13353.05, -244.75)" xlink:href="#linear-gradient-3"/><linearGradient id="linear-gradient-17" x1="-13416.39" y1="500.72" x2="-13416.39" y2="276.64" gradientTransform="matrix(-1, 0, 0, 1, -13353.05, -244.75)" xlink:href="#linear-gradient-3"/><linearGradient id="linear-gradient-18" x1="-13431.19" y1="500.72" x2="-13431.19" y2="276.64" gradientTransform="matrix(-1, 0, 0, 1, -13353.05, -244.75)" xlink:href="#linear-gradient-3"/><linearGradient id="linear-gradient-19" x1="-13446" y1="500.72" x2="-13446" y2="276.64" gradientTransform="matrix(-1, 0, 0, 1, -13353.05, -244.75)" xlink:href="#linear-gradient-3"/><linearGradient id="linear-gradient-20" x1="-13460.8" y1="500.72" x2="-13460.8" y2="276.64" gradientTransform="matrix(-1, 0, 0, 1, -13353.05, -244.75)" xlink:href="#linear-gradient-3"/><linearGradient id="linear-gradient-21" x1="-8535.31" y1="-8642.07" x2="-8249.43" y2="-8642.07" gradientTransform="translate(8799.77 -8246.78) rotate(-90)" xlink:href="#linear-gradient"/></defs><g id="Layer_2" data-name="Layer 2"><g id="Layer_1-2" data-name="Layer 1"><rect x="188.74" y="31.9" width="175.3" height="224.07" fill="url(#linear-gradient)"/><rect x="405.66" y="37.02" width="147.12" height="213.83" fill="url(#linear-gradient-2)"/><path d="M548.66,31.9A4.12,4.12,0,0,0,544.54,36V251.85a4.12,4.12,0,0,0,8.24,0V36A4.12,4.12,0,0,0,548.66,31.9Z" fill="url(#linear-gradient-3)"/><path d="M533.86,31.9A4.11,4.11,0,0,0,529.74,36V251.85a4.12,4.12,0,1,0,8.23,0V36A4.11,4.11,0,0,0,533.86,31.9Z" fill="url(#linear-gradient-4)"/><path d="M519.05,31.9A4.12,4.12,0,0,0,514.93,36V251.85a4.12,4.12,0,1,0,8.24,0V36A4.12,4.12,0,0,0,519.05,31.9Z" fill="url(#linear-gradient-5)"/><path d="M504.24,31.9A4.11,4.11,0,0,0,500.13,36V251.85a4.12,4.12,0,1,0,8.23,0V36A4.11,4.11,0,0,0,504.24,31.9Z" fill="url(#linear-gradient-6)"/><path d="M489.44,31.9A4.12,4.12,0,0,0,485.32,36V251.85a4.12,4.12,0,0,0,8.24,0V36A4.12,4.12,0,0,0,489.44,31.9Z" fill="url(#linear-gradient-7)"/><path d="M474.63,31.9A4.11,4.11,0,0,0,470.52,36V251.85a4.12,4.12,0,1,0,8.23,0V36A4.11,4.11,0,0,0,474.63,31.9Z" fill="url(#linear-gradient-8)"/><path d="M459.83,31.9A4.12,4.12,0,0,0,455.71,36V251.85a4.12,4.12,0,0,0,8.24,0V36A4.12,4.12,0,0,0,459.83,31.9Z" fill="url(#linear-gradient-9)"/><path d="M445,31.9A4.11,4.11,0,0,0,440.91,36V251.85a4.12,4.12,0,1,0,8.23,0V36A4.11,4.11,0,0,0,445,31.9Z" fill="url(#linear-gradient-10)"/><path d="M426.13,287.87H371.32a7.29,7.29,0,0,1-7.28-7.29V7.28A7.28,7.28,0,0,1,371.32,0h54.81Z" fill="url(#linear-gradient-11)"/><rect y="37.02" width="147.12" height="213.83" fill="url(#linear-gradient-12)"/><path d="M4.12,31.9A4.11,4.11,0,0,1,8.23,36V251.85a4.12,4.12,0,1,1-8.23,0V36A4.11,4.11,0,0,1,4.12,31.9Z" fill="url(#linear-gradient-13)"/><path d="M18.92,31.9A4.11,4.11,0,0,1,23,36V251.85a4.12,4.12,0,1,1-8.23,0V36A4.11,4.11,0,0,1,18.92,31.9Z" fill="url(#linear-gradient-14)"/><path d="M33.73,31.9A4.11,4.11,0,0,1,37.84,36V251.85a4.12,4.12,0,1,1-8.23,0V36A4.11,4.11,0,0,1,33.73,31.9Z" fill="url(#linear-gradient-15)"/><path d="M48.53,31.9A4.11,4.11,0,0,1,52.65,36V251.85a4.12,4.12,0,1,1-8.23,0V36A4.11,4.11,0,0,1,48.53,31.9Z" fill="url(#linear-gradient-16)"/><path d="M63.34,31.9A4.12,4.12,0,0,1,67.46,36V251.85a4.12,4.12,0,1,1-8.24,0V36A4.11,4.11,0,0,1,63.34,31.9Z" fill="url(#linear-gradient-17)"/><path d="M78.14,31.9A4.11,4.11,0,0,1,82.26,36V251.85a4.12,4.12,0,1,1-8.23,0V36A4.11,4.11,0,0,1,78.14,31.9Z" fill="url(#linear-gradient-18)"/><path d="M93,31.9A4.12,4.12,0,0,1,97.07,36V251.85a4.12,4.12,0,1,1-8.24,0V36A4.11,4.11,0,0,1,93,31.9Z" fill="url(#linear-gradient-19)"/><path d="M107.75,31.9A4.11,4.11,0,0,1,111.87,36V251.85a4.12,4.12,0,1,1-8.23,0V36A4.11,4.11,0,0,1,107.75,31.9Z" fill="url(#linear-gradient-20)"/><path d="M126.65,287.87h54.8a7.29,7.29,0,0,0,7.29-7.29V7.28A7.28,7.28,0,0,0,181.45,0h-54.8Z" fill="url(#linear-gradient-21)"/></g></g></svg>