<svg xmlns="http://www.w3.org/2000/svg" xmlns:xlink="http://www.w3.org/1999/xlink" viewBox="0 0 1171.39 541.27"><defs><linearGradient id="linear-gradient" x1="1861.08" y1="-273.58" x2="2085.15" y2="-273.58" gradientTransform="matrix(0, -1, -1, 0, 312.12, 2370.45)" gradientUnits="userSpaceOnUse"><stop offset="0" stop-color="#585a5b"/><stop offset="0.32" stop-color="#e7e7e8"/><stop offset="0.37" stop-color="#dbdbdd"/><stop offset="0.45" stop-color="#babbbe"/><stop offset="0.47" stop-color="#b4b5b9"/><stop offset="0.66" stop-color="#96979b"/><stop offset="0.8" stop-color="#757578"/><stop offset="0.92" stop-color="#606062"/><stop offset="1" stop-color="#58585a"/></linearGradient><linearGradient id="linear-gradient-2" x1="3927.44" y1="12107.69" x2="4141.27" y2="12107.69" gradientTransform="matrix(-1, 0, 0, 1, 4620.06, -12034.13)" xlink:href="#linear-gradient"/><linearGradient id="linear-gradient-3" x1="-11726.12" y1="-1551.87" x2="-11726.12" y2="-1775.94" gradientTransform="translate(2249.61 -11722.01) rotate(-90)" gradientUnits="userSpaceOnUse"><stop offset="0" stop-color="#58585a"/><stop offset="0.08" stop-color="#606062"/><stop offset="0.2" stop-color="#757578"/><stop offset="0.34" stop-color="#96979b"/><stop offset="0.53" stop-color="#b4b5b9"/><stop offset="0.55" stop-color="#babbbe"/><stop offset="0.63" stop-color="#dbdbdd"/><stop offset="0.68" stop-color="#e7e7e8"/><stop offset="1" stop-color="#585a5b"/></linearGradient><linearGradient id="linear-gradient-4" x1="-11740.93" y1="-1551.87" x2="-11740.93" y2="-1775.94" xlink:href="#linear-gradient-3"/><linearGradient id="linear-gradient-5" x1="-11755.74" y1="-1551.87" x2="-11755.74" y2="-1775.94" xlink:href="#linear-gradient-3"/><linearGradient id="linear-gradient-6" x1="-11770.54" y1="-1551.87" x2="-11770.54" y2="-1775.94" xlink:href="#linear-gradient-3"/><linearGradient id="linear-gradient-7" x1="-11785.35" y1="-1551.87" x2="-11785.35" y2="-1775.94" xlink:href="#linear-gradient-3"/><linearGradient id="linear-gradient-8" x1="-11800.15" y1="-1551.87" x2="-11800.15" y2="-1775.94" xlink:href="#linear-gradient-3"/><linearGradient id="linear-gradient-9" x1="-11814.96" y1="-1551.87" x2="-11814.96" y2="-1775.94" xlink:href="#linear-gradient-3"/><linearGradient id="linear-gradient-10" x1="-11829.76" y1="-1551.87" x2="-11829.76" y2="-1775.94" xlink:href="#linear-gradient-3"/><linearGradient id="linear-gradient-11" x1="473.67" y1="276.06" x2="697.74" y2="276.06" gradientTransform="matrix(1, 0, 0, 1, 0, 0)" xlink:href="#linear-gradient"/><linearGradient id="linear-gradient-12" x1="-6009.69" y1="-7691.51" x2="-5723.8" y2="-7691.51" gradientTransform="translate(-6551.17 6262.42) rotate(90)" xlink:href="#linear-gradient-3"/><linearGradient id="linear-gradient-13" x1="210.13" y1="1136.52" x2="210.13" y2="1165.06" gradientTransform="translate(895.5 -641.77)" gradientUnits="userSpaceOnUse"><stop offset="0" stop-color="#414042"/><stop offset="0.51" stop-color="#6d6e71"/><stop offset="0.99" stop-color="#414042"/></linearGradient><radialGradient id="radial-gradient" cx="191.22" cy="1150.6" r="19.97" gradientTransform="translate(895.5 -641.77)" gradientUnits="userSpaceOnUse"><stop offset="0" stop-color="#6d6e71"/><stop offset="1" stop-color="#414042"/></radialGradient><linearGradient id="linear-gradient-14" x1="210.13" y1="1062.23" x2="210.13" y2="1090.77" xlink:href="#linear-gradient-13"/><radialGradient id="radial-gradient-2" cx="191.22" cy="1076.31" r="19.97" xlink:href="#radial-gradient"/><linearGradient id="linear-gradient-15" x1="210.13" y1="987.94" x2="210.13" y2="1016.48" xlink:href="#linear-gradient-13"/><radialGradient id="radial-gradient-3" cx="191.22" cy="1002.02" r="19.97" xlink:href="#radial-gradient"/><linearGradient id="linear-gradient-16" x1="210.13" y1="913.65" x2="210.13" y2="942.19" xlink:href="#linear-gradient-13"/><radialGradient id="radial-gradient-4" cx="191.22" cy="927.73" r="19.97" xlink:href="#radial-gradient"/><linearGradient id="linear-gradient-17" x1="-6009.69" y1="-8756.87" x2="-5723.8" y2="-8756.87" gradientTransform="matrix(0, 1, 1, 0, 8787.91, 6262.42)" xlink:href="#linear-gradient-3"/><linearGradient id="linear-gradient-18" x1="1275.48" y1="1136.52" x2="1275.48" y2="1165.06" gradientTransform="matrix(1, 0, 0, -1, -1209.72, 1659.31)" xlink:href="#linear-gradient-13"/><radialGradient id="radial-gradient-5" cx="1256.58" cy="1150.6" r="19.97" gradientTransform="matrix(-1, 0, 0, 1, 1341.25, -641.77)" xlink:href="#radial-gradient"/><linearGradient id="linear-gradient-19" x1="1275.48" y1="1062.23" x2="1275.48" y2="1090.77" gradientTransform="matrix(1, 0, 0, -1, -1209.72, 1510.73)" xlink:href="#linear-gradient-13"/><radialGradient id="radial-gradient-6" cx="1256.58" cy="1076.31" r="19.97" gradientTransform="matrix(-1, 0, 0, 1, 1341.25, -641.77)" xlink:href="#radial-gradient"/><linearGradient id="linear-gradient-20" x1="1275.48" y1="987.94" x2="1275.48" y2="1016.48" gradientTransform="matrix(1, 0, 0, -1, -1209.72, 1362.15)" xlink:href="#linear-gradient-13"/><radialGradient id="radial-gradient-7" cx="1256.58" cy="1002.02" r="19.97" gradientTransform="matrix(-1, 0, 0, 1, 1341.25, -641.77)" xlink:href="#radial-gradient"/><linearGradient id="linear-gradient-21" x1="1275.48" y1="913.65" x2="1275.48" y2="942.19" gradientTransform="matrix(1, 0, 0, -1, -1209.72, 1213.56)" xlink:href="#linear-gradient-13"/><radialGradient id="radial-gradient-8" cx="1256.58" cy="927.73" r="19.97" gradientTransform="matrix(-1, 0, 0, 1, 1341.25, -641.77)" xlink:href="#radial-gradient"/><linearGradient id="linear-gradient-22" x1="-5328.62" y1="-9119.01" x2="-5042.73" y2="-9119.01" gradientTransform="matrix(-1, 0, 0, 1, -4598.31, 9276.7)" xlink:href="#linear-gradient-3"/></defs><g id="Layer_2" data-name="Layer 2"><g id="Layer_1-2" data-name="Layer 1"><rect x="62.09" y="285.3" width="1047.23" height="224.07" fill="url(#linear-gradient)"/><rect x="478.79" width="213.83" height="147.12" fill="url(#linear-gradient-2)"/><path d="M473.67,4.12a4.11,4.11,0,0,0,4.11,4.11H693.62a4.12,4.12,0,1,0,0-8.23H477.78A4.11,4.11,0,0,0,473.67,4.12Z" fill="url(#linear-gradient-3)"/><path d="M473.67,18.92A4.11,4.11,0,0,0,477.78,23H693.62a4.12,4.12,0,1,0,0-8.23H477.78A4.11,4.11,0,0,0,473.67,18.92Z" fill="url(#linear-gradient-4)"/><path d="M473.67,33.73a4.11,4.11,0,0,0,4.11,4.11H693.62a4.12,4.12,0,1,0,0-8.23H477.78A4.11,4.11,0,0,0,473.67,33.73Z" fill="url(#linear-gradient-5)"/><path d="M473.67,48.53a4.11,4.11,0,0,0,4.11,4.12H693.62a4.12,4.12,0,1,0,0-8.23H477.78A4.11,4.11,0,0,0,473.67,48.53Z" fill="url(#linear-gradient-6)"/><path d="M473.67,63.34a4.12,4.12,0,0,0,4.11,4.12H693.62a4.12,4.12,0,1,0,0-8.24H477.78A4.11,4.11,0,0,0,473.67,63.34Z" fill="url(#linear-gradient-7)"/><path d="M473.67,78.14a4.11,4.11,0,0,0,4.11,4.12H693.62a4.12,4.12,0,1,0,0-8.23H477.78A4.11,4.11,0,0,0,473.67,78.14Z" fill="url(#linear-gradient-8)"/><path d="M473.67,93a4.12,4.12,0,0,0,4.11,4.12H693.62a4.12,4.12,0,1,0,0-8.24H477.78A4.11,4.11,0,0,0,473.67,93Z" fill="url(#linear-gradient-9)"/><path d="M473.67,107.75a4.11,4.11,0,0,0,4.11,4.12H693.62a4.12,4.12,0,1,0,0-8.23H477.78A4.11,4.11,0,0,0,473.67,107.75Z" fill="url(#linear-gradient-10)"/><polygon points="697.74 188.75 697.74 285.3 585.7 363.37 473.67 285.3 473.67 188.75 697.74 188.75" fill="url(#linear-gradient-11)"/><path d="M1171.39,253.4h-54.81a7.28,7.28,0,0,0-7.28,7.29V534a7.28,7.28,0,0,0,7.28,7.28h54.81Z" fill="url(#linear-gradient-12)"/><rect x="1101.95" y="494.37" width="7.34" height="28.8" fill="url(#linear-gradient-13)"/><path d="M1102,494.4a14.38,14.38,0,0,0,0,28.75Z" fill="url(#radial-gradient)"/><rect x="1101.95" y="420.08" width="7.34" height="28.8" fill="url(#linear-gradient-14)"/><path d="M1102,420.11a14.38,14.38,0,0,0,0,28.75Z" fill="url(#radial-gradient-2)"/><rect x="1101.95" y="345.79" width="7.34" height="28.8" fill="url(#linear-gradient-15)"/><path d="M1102,345.82a14.38,14.38,0,0,0,0,28.75Z" fill="url(#radial-gradient-3)"/><rect x="1101.95" y="271.5" width="7.34" height="28.8" fill="url(#linear-gradient-16)"/><path d="M1102,271.52a14.38,14.38,0,0,0,0,28.75Z" fill="url(#radial-gradient-4)"/><path d="M0,253.4H54.8a7.29,7.29,0,0,1,7.29,7.29V534a7.28,7.28,0,0,1-7.29,7.28H0Z" fill="url(#linear-gradient-17)"/><rect x="62.09" y="494.37" width="7.34" height="28.8" transform="translate(131.53 1017.54) rotate(180)" fill="url(#linear-gradient-18)"/><path d="M69.43,494.4a14.38,14.38,0,1,1,0,28.75Z" fill="url(#radial-gradient-5)"/><rect x="62.09" y="420.08" width="7.34" height="28.8" transform="translate(131.53 868.96) rotate(180)" fill="url(#linear-gradient-19)"/><path d="M69.43,420.11a14.38,14.38,0,1,1,0,28.75Z" fill="url(#radial-gradient-6)"/><rect x="62.09" y="345.79" width="7.34" height="28.8" transform="translate(131.53 720.38) rotate(180)" fill="url(#linear-gradient-20)"/><path d="M69.43,345.82a14.38,14.38,0,1,1,0,28.75Z" fill="url(#radial-gradient-7)"/><rect x="62.09" y="271.5" width="7.34" height="28.8" transform="translate(131.53 571.8) rotate(180)" fill="url(#linear-gradient-21)"/><path d="M69.43,271.52a14.38,14.38,0,1,1,0,28.75Z" fill="url(#radial-gradient-8)"/><path d="M729.63,126.65v54.8a7.28,7.28,0,0,1-7.28,7.29H449.05a7.28,7.28,0,0,1-7.28-7.29v-54.8Z" fill="url(#linear-gradient-22)"/></g></g></svg>