<svg xmlns="http://www.w3.org/2000/svg" xmlns:xlink="http://www.w3.org/1999/xlink" viewBox="0 0 754.97 539.52"><defs><linearGradient id="linear-gradient" x1="174.85" y1="-1753.34" x2="398.93" y2="-1753.34" gradientTransform="matrix(0, -1, -1, 0, -1375.85, 682.48)" gradientUnits="userSpaceOnUse"><stop offset="0" stop-color="#585a5b"/><stop offset="0.32" stop-color="#e7e7e8"/><stop offset="0.37" stop-color="#dbdbdd"/><stop offset="0.45" stop-color="#babbbe"/><stop offset="0.47" stop-color="#b4b5b9"/><stop offset="0.66" stop-color="#96979b"/><stop offset="0.8" stop-color="#757578"/><stop offset="0.92" stop-color="#606062"/><stop offset="1" stop-color="#58585a"/></linearGradient><linearGradient id="linear-gradient-2" x1="265.45" y1="211.81" x2="489.52" y2="211.81" gradientTransform="matrix(1, 0, 0, 1, 0, 0)" xlink:href="#linear-gradient"/><linearGradient id="linear-gradient-3" x1="-6298.39" y1="-7524.05" x2="-6012.51" y2="-7524.05" gradientTransform="translate(6531.28 7555.1)" xlink:href="#linear-gradient"/><linearGradient id="linear-gradient-4" x1="-1645.3" y1="1140.26" x2="-1645.3" y2="1168.81" gradientTransform="translate(2134.23 -1088.51)" gradientUnits="userSpaceOnUse"><stop offset="0" stop-color="#414042"/><stop offset="0.51" stop-color="#6d6e71"/><stop offset="0.99" stop-color="#414042"/></linearGradient><radialGradient id="radial-gradient" cx="-1664.21" cy="1154.34" r="19.97" gradientTransform="translate(-665.36 -1579.54) rotate(-90)" gradientUnits="userSpaceOnUse"><stop offset="0" stop-color="#6d6e71"/><stop offset="1" stop-color="#414042"/></radialGradient><linearGradient id="linear-gradient-5" x1="-1645.3" y1="1065.97" x2="-1645.3" y2="1094.52" gradientTransform="translate(2059.94 -1014.22)" xlink:href="#linear-gradient-4"/><radialGradient id="radial-gradient-2" cx="-1664.21" cy="1080.05" r="19.97" xlink:href="#radial-gradient"/><linearGradient id="linear-gradient-6" x1="-1645.3" y1="991.68" x2="-1645.3" y2="1020.23" gradientTransform="translate(1985.65 -939.93)" xlink:href="#linear-gradient-4"/><radialGradient id="radial-gradient-3" cx="-1664.21" cy="1005.76" r="19.97" xlink:href="#radial-gradient"/><linearGradient id="linear-gradient-7" x1="-1645.3" y1="917.39" x2="-1645.3" y2="945.94" gradientTransform="translate(1911.36 -865.64)" xlink:href="#linear-gradient-4"/><radialGradient id="radial-gradient-4" cx="-1664.21" cy="931.47" r="19.97" xlink:href="#radial-gradient"/><linearGradient id="linear-gradient-8" x1="-6585.33" y1="-9860.68" x2="-6299.44" y2="-9860.68" gradientTransform="translate(-9136.75 6836.32) rotate(90)" gradientUnits="userSpaceOnUse"><stop offset="0" stop-color="#58585a"/><stop offset="0.08" stop-color="#606062"/><stop offset="0.2" stop-color="#757578"/><stop offset="0.34" stop-color="#96979b"/><stop offset="0.53" stop-color="#b4b5b9"/><stop offset="0.55" stop-color="#babbbe"/><stop offset="0.63" stop-color="#dbdbdd"/><stop offset="0.68" stop-color="#e7e7e8"/><stop offset="1" stop-color="#585a5b"/></linearGradient><linearGradient id="linear-gradient-9" x1="691.32" y1="853.32" x2="691.32" y2="881.87" gradientTransform="translate(-2.11 -360.31)" xlink:href="#linear-gradient-4"/><radialGradient id="radial-gradient-5" cx="672.42" cy="867.4" r="19.97" gradientTransform="translate(-2.11 -360.31)" xlink:href="#radial-gradient"/><linearGradient id="linear-gradient-10" x1="691.32" y1="779.03" x2="691.32" y2="807.58" gradientTransform="translate(-2.11 -360.31)" xlink:href="#linear-gradient-4"/><radialGradient id="radial-gradient-6" cx="672.42" cy="793.11" r="19.97" gradientTransform="translate(-2.11 -360.31)" xlink:href="#radial-gradient"/><linearGradient id="linear-gradient-11" x1="691.32" y1="704.74" x2="691.32" y2="733.29" gradientTransform="translate(-2.11 -360.31)" xlink:href="#linear-gradient-4"/><radialGradient id="radial-gradient-7" cx="672.42" cy="718.82" r="19.97" gradientTransform="translate(-2.11 -360.31)" xlink:href="#radial-gradient"/><linearGradient id="linear-gradient-12" x1="691.32" y1="630.45" x2="691.32" y2="659" gradientTransform="translate(-2.11 -360.31)" xlink:href="#linear-gradient-4"/><radialGradient id="radial-gradient-8" cx="672.42" cy="644.53" r="19.97" gradientTransform="translate(-2.11 -360.31)" xlink:href="#radial-gradient"/><linearGradient id="linear-gradient-13" x1="-6585.33" y1="-5393.43" x2="-6299.44" y2="-5393.43" gradientTransform="matrix(0, 1, 1, 0, 5424.47, 6836.32)" xlink:href="#linear-gradient-8"/><linearGradient id="linear-gradient-14" x1="-3775.93" y1="853.32" x2="-3775.93" y2="881.87" gradientTransform="matrix(1, 0, 0, -1, 3841.69, 1374.37)" xlink:href="#linear-gradient-4"/><radialGradient id="radial-gradient-9" cx="-3794.83" cy="867.4" r="19.97" gradientTransform="matrix(-1, 0, 0, 1, -3710.16, -360.31)" xlink:href="#radial-gradient"/><linearGradient id="linear-gradient-15" x1="-3775.93" y1="779.03" x2="-3775.93" y2="807.58" gradientTransform="matrix(1, 0, 0, -1, 3841.69, 1225.78)" xlink:href="#linear-gradient-4"/><radialGradient id="radial-gradient-10" cx="-3794.83" cy="793.11" r="19.97" gradientTransform="matrix(-1, 0, 0, 1, -3710.16, -360.31)" xlink:href="#radial-gradient"/><linearGradient id="linear-gradient-16" x1="-3775.93" y1="704.74" x2="-3775.93" y2="733.29" gradientTransform="matrix(1, 0, 0, -1, 3841.69, 1077.2)" xlink:href="#linear-gradient-4"/><radialGradient id="radial-gradient-11" cx="-3794.83" cy="718.82" r="19.97" gradientTransform="matrix(-1, 0, 0, 1, -3710.16, -360.31)" xlink:href="#radial-gradient"/><linearGradient id="linear-gradient-17" x1="-3775.93" y1="630.45" x2="-3775.93" y2="659" gradientTransform="matrix(1, 0, 0, -1, 3841.69, 928.62)" xlink:href="#linear-gradient-4"/><radialGradient id="radial-gradient-12" cx="-3794.83" cy="644.53" r="19.97" gradientTransform="matrix(-1, 0, 0, 1, -3710.16, -360.31)" xlink:href="#radial-gradient"/></defs><g id="Layer_2" data-name="Layer 2"><g id="Layer_1-2" data-name="Layer 1"><rect x="62.07" y="283.55" width="630.83" height="224.07" fill="url(#linear-gradient)"/><polygon points="489.52 62.08 489.52 283.56 377.49 361.54 265.45 283.56 265.45 62.08 489.52 62.08" fill="url(#linear-gradient-2)"/><path d="M233.55,0V54.8a7.29,7.29,0,0,0,7.29,7.29h273.3a7.28,7.28,0,0,0,7.28-7.29V0Z" fill="url(#linear-gradient-3)"/><rect x="485.25" y="51.36" width="7.34" height="28.8" transform="translate(423.16 554.68) rotate(-90)" fill="url(#linear-gradient-4)"/><path d="M474.55,69.43a14.38,14.38,0,1,0,28.75,0Z" fill="url(#radial-gradient)"/><rect x="410.96" y="51.36" width="7.34" height="28.8" transform="translate(348.87 480.39) rotate(-90)" fill="url(#linear-gradient-5)"/><path d="M400.26,69.43a14.38,14.38,0,1,0,28.75,0Z" fill="url(#radial-gradient-2)"/><rect x="336.67" y="51.36" width="7.34" height="28.8" transform="translate(274.58 406.1) rotate(-90)" fill="url(#linear-gradient-6)"/><path d="M326,69.43a14.38,14.38,0,1,0,28.75,0Z" fill="url(#radial-gradient-3)"/><rect x="262.38" y="51.36" width="7.34" height="28.8" transform="translate(200.29 331.81) rotate(-90)" fill="url(#linear-gradient-7)"/><path d="M251.68,69.43a14.38,14.38,0,1,0,28.75,0Z" fill="url(#radial-gradient-4)"/><path d="M755,251.66h-54.8a7.28,7.28,0,0,0-7.28,7.28v273.3a7.28,7.28,0,0,0,7.28,7.28H755Z" fill="url(#linear-gradient-8)"/><rect x="685.54" y="492.63" width="7.34" height="28.8" fill="url(#linear-gradient-9)"/><path d="M685.54,492.65a14.38,14.38,0,1,0,0,28.75Z" fill="url(#radial-gradient-5)"/><rect x="685.54" y="418.34" width="7.34" height="28.8" fill="url(#linear-gradient-10)"/><path d="M685.54,418.36a14.38,14.38,0,1,0,0,28.75Z" fill="url(#radial-gradient-6)"/><rect x="685.54" y="344.05" width="7.34" height="28.8" fill="url(#linear-gradient-11)"/><path d="M685.54,344.07a14.38,14.38,0,1,0,0,28.75Z" fill="url(#radial-gradient-7)"/><rect x="685.54" y="269.76" width="7.34" height="28.8" fill="url(#linear-gradient-12)"/><path d="M685.54,269.78a14.38,14.38,0,1,0,0,28.75Z" fill="url(#radial-gradient-8)"/><path d="M0,251.66H54.8a7.28,7.28,0,0,1,7.29,7.28v273.3a7.28,7.28,0,0,1-7.29,7.28H0Z" fill="url(#linear-gradient-13)"/><rect x="62.09" y="492.63" width="7.34" height="28.8" transform="translate(131.53 1014.05) rotate(180)" fill="url(#linear-gradient-14)"/><path d="M69.43,492.65a14.38,14.38,0,1,1,0,28.75Z" fill="url(#radial-gradient-9)"/><rect x="62.09" y="418.34" width="7.34" height="28.8" transform="translate(131.53 865.47) rotate(180)" fill="url(#linear-gradient-15)"/><path d="M69.43,418.36a14.38,14.38,0,1,1,0,28.75Z" fill="url(#radial-gradient-10)"/><rect x="62.09" y="344.05" width="7.34" height="28.8" transform="translate(131.53 716.89) rotate(180)" fill="url(#linear-gradient-16)"/><path d="M69.43,344.07a14.38,14.38,0,1,1,0,28.75Z" fill="url(#radial-gradient-11)"/><rect x="62.09" y="269.76" width="7.34" height="28.8" transform="translate(131.53 568.31) rotate(180)" fill="url(#linear-gradient-17)"/><path d="M69.43,269.78a14.38,14.38,0,1,1,0,28.75Z" fill="url(#radial-gradient-12)"/></g></g></svg>