<svg xmlns="http://www.w3.org/2000/svg" xmlns:xlink="http://www.w3.org/1999/xlink" viewBox="0 0 535.5 540.29"><defs><linearGradient id="linear-gradient" x1="249.22" y1="284.85" x2="249.22" y2="510.21" gradientUnits="userSpaceOnUse"><stop offset="0" stop-color="#58585a"/><stop offset="0.08" stop-color="#606062"/><stop offset="0.2" stop-color="#757578"/><stop offset="0.34" stop-color="#96979b"/><stop offset="0.53" stop-color="#b4b5b9"/><stop offset="0.55" stop-color="#babbbe"/><stop offset="0.63" stop-color="#dbdbdd"/><stop offset="0.68" stop-color="#e7e7e8"/><stop offset="1" stop-color="#585a5b"/></linearGradient><linearGradient id="linear-gradient-2" x1="25.01" y1="285.23" x2="249.08" y2="285.23" gradientUnits="userSpaceOnUse"><stop offset="0" stop-color="#585a5b"/><stop offset="0.32" stop-color="#e7e7e8"/><stop offset="0.37" stop-color="#dbdbdd"/><stop offset="0.45" stop-color="#babbbe"/><stop offset="0.47" stop-color="#b4b5b9"/><stop offset="0.66" stop-color="#96979b"/><stop offset="0.8" stop-color="#757578"/><stop offset="0.92" stop-color="#606062"/><stop offset="1" stop-color="#58585a"/></linearGradient><linearGradient id="linear-gradient-3" x1="-7321.47" y1="-8515.94" x2="-7035.58" y2="-8515.94" gradientTransform="translate(-8011.48 7573.22) rotate(90)" xlink:href="#linear-gradient"/><linearGradient id="linear-gradient-4" x1="-425.77" y1="1135.54" x2="-425.77" y2="1164.08" gradientTransform="translate(895.5 -641.77)" gradientUnits="userSpaceOnUse"><stop offset="0" stop-color="#414042"/><stop offset="0.51" stop-color="#6d6e71"/><stop offset="0.99" stop-color="#414042"/></linearGradient><radialGradient id="radial-gradient" cx="-444.67" cy="1149.62" r="19.97" gradientTransform="translate(895.5 -641.77)" gradientUnits="userSpaceOnUse"><stop offset="0" stop-color="#6d6e71"/><stop offset="1" stop-color="#414042"/></radialGradient><linearGradient id="linear-gradient-5" x1="-425.77" y1="1061.25" x2="-425.77" y2="1089.79" xlink:href="#linear-gradient-4"/><radialGradient id="radial-gradient-2" cx="-444.67" cy="1075.33" r="19.97" xlink:href="#radial-gradient"/><linearGradient id="linear-gradient-6" x1="-425.77" y1="986.96" x2="-425.77" y2="1015.5" xlink:href="#linear-gradient-4"/><radialGradient id="radial-gradient-3" cx="-444.67" cy="1001.04" r="19.97" xlink:href="#radial-gradient"/><linearGradient id="linear-gradient-7" x1="-425.77" y1="912.67" x2="-425.77" y2="941.21" xlink:href="#linear-gradient-4"/><radialGradient id="radial-gradient-4" cx="-444.67" cy="926.75" r="19.97" xlink:href="#radial-gradient"/><linearGradient id="linear-gradient-8" x1="-3606.12" y1="-11022.43" x2="-3320.23" y2="-11022.43" gradientTransform="matrix(-1, 0, 0, 1, -3317.58, 11053.48)" xlink:href="#linear-gradient"/><linearGradient id="linear-gradient-9" x1="2080.73" y1="4850.89" x2="2080.73" y2="4879.44" gradientTransform="matrix(1, 0, 0, -1, -2048.24, 4930.67)" xlink:href="#linear-gradient-4"/><radialGradient id="radial-gradient-5" cx="2061.83" cy="4864.97" r="19.97" gradientTransform="matrix(0, -1, -1, 0, 4897.4, 2146.5)" xlink:href="#radial-gradient"/><linearGradient id="linear-gradient-10" x1="2080.73" y1="4776.6" x2="2080.73" y2="4805.15" gradientTransform="matrix(1, 0, 0, -1, -1973.95, 4856.38)" xlink:href="#linear-gradient-4"/><radialGradient id="radial-gradient-6" cx="2061.83" cy="4790.68" r="19.97" gradientTransform="matrix(0, -1, -1, 0, 4897.4, 2146.5)" xlink:href="#radial-gradient"/><linearGradient id="linear-gradient-11" x1="2080.73" y1="4702.31" x2="2080.73" y2="4730.86" gradientTransform="matrix(1, 0, 0, -1, -1899.65, 4782.09)" xlink:href="#linear-gradient-4"/><radialGradient id="radial-gradient-7" cx="2061.83" cy="4716.39" r="19.97" gradientTransform="matrix(0, -1, -1, 0, 4897.4, 2146.5)" xlink:href="#radial-gradient"/><linearGradient id="linear-gradient-12" x1="2080.73" y1="4628.02" x2="2080.73" y2="4656.56" gradientTransform="matrix(1, 0, 0, -1, -1825.36, 4707.8)" xlink:href="#linear-gradient-4"/><radialGradient id="radial-gradient-8" cx="2061.83" cy="4642.1" r="19.97" gradientTransform="matrix(0, -1, -1, 0, 4897.4, 2146.5)" xlink:href="#radial-gradient"/></defs><g id="Layer_2" data-name="Layer 2"><g id="Layer_1-2" data-name="Layer 1"><polygon points="473.43 284.32 473.43 508.39 25.01 508.39 249.08 284.32 473.43 284.32" fill="url(#linear-gradient)"/><polygon points="249.08 62.08 249.08 284.32 25.01 508.39 25.01 62.08 249.08 62.08" fill="url(#linear-gradient-2)"/><path d="M535.5,252.42H480.69a7.28,7.28,0,0,0-7.28,7.29V533a7.28,7.28,0,0,0,7.28,7.28H535.5Z" fill="url(#linear-gradient-3)"/><rect x="466.06" y="493.39" width="7.34" height="28.8" fill="url(#linear-gradient-4)"/><path d="M466.06,493.42a14.38,14.38,0,0,0,0,28.75Z" fill="url(#radial-gradient)"/><rect x="466.06" y="419.1" width="7.34" height="28.8" fill="url(#linear-gradient-5)"/><path d="M466.06,419.13a14.38,14.38,0,0,0,0,28.75Z" fill="url(#radial-gradient-2)"/><rect x="466.06" y="344.81" width="7.34" height="28.8" fill="url(#linear-gradient-6)"/><path d="M466.06,344.84a14.37,14.37,0,0,0,0,28.74Z" fill="url(#radial-gradient-3)"/><rect x="466.06" y="270.52" width="7.34" height="28.8" fill="url(#linear-gradient-7)"/><path d="M466.06,270.54a14.38,14.38,0,0,0,0,28.75Z" fill="url(#radial-gradient-4)"/><path d="M287.87,0V54.8a7.29,7.29,0,0,1-7.29,7.29H7.28A7.28,7.28,0,0,1,0,54.8V0Z" fill="url(#linear-gradient-8)"/><rect x="28.83" y="51.36" width="7.34" height="28.8" transform="translate(-33.27 98.26) rotate(-90)" fill="url(#linear-gradient-9)"/><path d="M46.87,69.43a14.38,14.38,0,1,1-28.75,0Z" fill="url(#radial-gradient-5)"/><rect x="103.12" y="51.36" width="7.34" height="28.8" transform="translate(41.02 172.55) rotate(-90)" fill="url(#linear-gradient-10)"/><path d="M121.16,69.43a14.38,14.38,0,1,1-28.75,0Z" fill="url(#radial-gradient-6)"/><rect x="177.41" y="51.36" width="7.34" height="28.8" transform="translate(115.31 246.84) rotate(-90)" fill="url(#linear-gradient-11)"/><path d="M195.45,69.43a14.38,14.38,0,1,1-28.75,0Z" fill="url(#radial-gradient-7)"/><rect x="251.7" y="51.36" width="7.34" height="28.8" transform="translate(189.61 321.13) rotate(-90)" fill="url(#linear-gradient-12)"/><path d="M269.74,69.43a14.38,14.38,0,1,1-28.75,0Z" fill="url(#radial-gradient-8)"/></g></g></svg>