<svg xmlns="http://www.w3.org/2000/svg" xmlns:xlink="http://www.w3.org/1999/xlink" width="397.278" height="1057.67" viewBox="0 0 397.278 1057.67">
  <defs>
    <linearGradient id="a" x1="45.874" y1="528.858" x2="351.404" y2="528.858" gradientUnits="userSpaceOnUse">
      <stop offset="0" stop-color="#474848"/>
      <stop offset="0.089" stop-color="#636363"/>
      <stop offset="0.113" stop-color="#5c5c5c"/>
      <stop offset="0.178" stop-color="#505050"/>
      <stop offset="0.241" stop-color="#4c4c4c"/>
      <stop offset="0.277" stop-color="#595959"/>
      <stop offset="0.344" stop-color="#7d7d7d"/>
      <stop offset="0.435" stop-color="#b6b6b6"/>
      <stop offset="0.488" stop-color="#dbdbdb"/>
      <stop offset="0.509" stop-color="#cdcdcd"/>
      <stop offset="0.603" stop-color="#939393"/>
      <stop offset="0.673" stop-color="#6f7070"/>
      <stop offset="0.71" stop-color="#616262"/>
      <stop offset="0.763" stop-color="#656666"/>
      <stop offset="0.822" stop-color="#727373"/>
      <stop offset="0.865" stop-color="#818281"/>
      <stop offset="0.886" stop-color="#7b7c7b"/>
      <stop offset="0.915" stop-color="#6a6c6b"/>
      <stop offset="0.949" stop-color="#4e5050"/>
      <stop offset="0.985" stop-color="#282a2a"/>
      <stop offset="1" stop-color="#151818"/>
    </linearGradient>
    <linearGradient id="b" x1="0" y1="30.583" x2="397.278" y2="30.583" xlink:href="#a"/>
    <linearGradient id="c" x1="1913.7" y1="-1703.738" x2="1963.121" y2="-1703.738" gradientTransform="translate(-1888.825 1771.555)" xlink:href="#a"/>
    <linearGradient id="d" x1="1764.646" y1="-1703.738" x2="1814.068" y2="-1703.738" gradientTransform="translate(-1590.718 1771.555)" xlink:href="#a"/>
    <linearGradient id="e" x1="1615.593" y1="-1703.738" x2="1665.014" y2="-1703.738" gradientTransform="translate(-1292.611 1771.555)" xlink:href="#a"/>
    <linearGradient id="f" x1="4387.718" y1="3395.395" x2="4784.996" y2="3395.395" gradientTransform="translate(-4387.718 -2368.308)" xlink:href="#a"/>
    <linearGradient id="g" x1="-2474.018" y1="-5068.551" x2="-2424.597" y2="-5068.551" gradientTransform="translate(2797 6058.403)" xlink:href="#a"/>
    <linearGradient id="h" x1="-2623.072" y1="-5068.551" x2="-2573.65" y2="-5068.551" gradientTransform="translate(2797 6058.403)" xlink:href="#a"/>
    <linearGradient id="i" x1="-2772.125" y1="-5068.551" x2="-2722.704" y2="-5068.551" gradientTransform="translate(2797 6058.403)" xlink:href="#a"/>
  </defs>
  <g>
    <rect x="45.874" y="61.159" width="305.53" height="935.398" fill="url(#a)"/>
    <g>
      <g>
        <rect width="397.278" height="61.165" fill="url(#b)"/>
        <rect width="397.278" height="5.345" fill="#fff" opacity="0.49"/>
        <rect y="55.821" width="397.278" height="5.345" fill="#161616" opacity="0.49"/>
      </g>
      <g>
        <g>
          <rect x="24.875" y="61.165" width="49.421" height="13.304" transform="translate(99.171 135.635) rotate(180)" fill="url(#c)"/>
          <rect x="24.875" y="73.307" width="49.421" height="1.162" transform="translate(99.171 147.776) rotate(180)" fill="#161616" opacity="0.49"/>
          <rect x="24.875" y="61.165" width="49.421" height="1.163" transform="translate(99.171 123.493) rotate(180)" fill="#161616" opacity="0.49"/>
        </g>
        <g>
          <rect x="173.928" y="61.165" width="49.421" height="13.304" transform="translate(397.278 135.635) rotate(180)" fill="url(#d)"/>
          <rect x="173.928" y="73.307" width="49.421" height="1.162" transform="translate(397.278 147.776) rotate(180)" fill="#161616" opacity="0.49"/>
          <rect x="173.928" y="61.165" width="49.421" height="1.163" transform="translate(397.278 123.493) rotate(180)" fill="#161616" opacity="0.49"/>
        </g>
        <g>
          <rect x="322.982" y="61.165" width="49.421" height="13.304" transform="translate(695.385 135.635) rotate(180)" fill="url(#e)"/>
          <rect x="322.982" y="73.307" width="49.421" height="1.162" transform="translate(695.385 147.776) rotate(180)" fill="#161616" opacity="0.49"/>
          <rect x="322.982" y="61.165" width="49.421" height="1.163" transform="translate(695.385 123.493) rotate(180)" fill="#161616" opacity="0.49"/>
        </g>
      </g>
    </g>
    <g>
      <g>
        <rect y="996.505" width="397.278" height="61.165" transform="translate(397.278 2054.174) rotate(180)" fill="url(#f)"/>
        <rect y="1052.325" width="397.278" height="5.345" transform="translate(397.278 2109.995) rotate(180)" fill="#161616" opacity="0.49"/>
        <rect y="996.505" width="397.278" height="5.345" transform="translate(397.278 1998.354) rotate(180)" fill="#fff" opacity="0.49"/>
      </g>
      <g>
        <g>
          <rect x="322.982" y="983.201" width="49.421" height="13.304" fill="url(#g)"/>
          <rect x="322.982" y="983.201" width="49.421" height="1.163" fill="#161616" opacity="0.49"/>
          <rect x="322.982" y="995.342" width="49.421" height="1.162" fill="#161616" opacity="0.49"/>
        </g>
        <g>
          <rect x="173.928" y="983.201" width="49.421" height="13.304" fill="url(#h)"/>
          <rect x="173.928" y="983.201" width="49.421" height="1.163" fill="#161616" opacity="0.49"/>
          <rect x="173.928" y="995.342" width="49.421" height="1.162" fill="#161616" opacity="0.49"/>
        </g>
        <g>
          <rect x="24.875" y="983.201" width="49.421" height="13.304" fill="url(#i)"/>
          <rect x="24.875" y="983.201" width="49.421" height="1.163" fill="#161616" opacity="0.49"/>
          <rect x="24.875" y="995.342" width="49.421" height="1.162" fill="#161616" opacity="0.49"/>
        </g>
      </g>
    </g>
  </g>
</svg>
