<svg xmlns="http://www.w3.org/2000/svg" xmlns:xlink="http://www.w3.org/1999/xlink" width="1057.67" height="1057.67" viewBox="0 0 1057.67 1057.67">
  <defs>
    <linearGradient id="a" x1="-1893.933" y1="2073.348" x2="-1588.403" y2="2073.348" gradientTransform="translate(2270.003 -1544.516)" gradientUnits="userSpaceOnUse">
      <stop offset="0" stop-color="#474848"/>
      <stop offset="0.089" stop-color="#636363"/>
      <stop offset="0.113" stop-color="#5c5c5c"/>
      <stop offset="0.178" stop-color="#505050"/>
      <stop offset="0.241" stop-color="#4c4c4c"/>
      <stop offset="0.277" stop-color="#595959"/>
      <stop offset="0.344" stop-color="#7d7d7d"/>
      <stop offset="0.435" stop-color="#b6b6b6"/>
      <stop offset="0.488" stop-color="#dbdbdb"/>
      <stop offset="0.509" stop-color="#cdcdcd"/>
      <stop offset="0.603" stop-color="#939393"/>
      <stop offset="0.673" stop-color="#6f7070"/>
      <stop offset="0.71" stop-color="#616262"/>
      <stop offset="0.763" stop-color="#656666"/>
      <stop offset="0.822" stop-color="#727373"/>
      <stop offset="0.865" stop-color="#818281"/>
      <stop offset="0.886" stop-color="#7b7c7b"/>
      <stop offset="0.915" stop-color="#6a6c6b"/>
      <stop offset="0.949" stop-color="#4e5050"/>
      <stop offset="0.985" stop-color="#282a2a"/>
      <stop offset="1" stop-color="#151818"/>
    </linearGradient>
    <linearGradient id="b" x1="-1939.807" y1="1575.099" x2="-1542.529" y2="1575.099" xlink:href="#a"/>
    <linearGradient id="c" x1="-2616.871" y1="-1887.304" x2="-2567.45" y2="-1887.304" gradientTransform="translate(2971.942 1955.122)" xlink:href="#a"/>
    <linearGradient id="d" x1="-2765.924" y1="-1887.304" x2="-2716.503" y2="-1887.304" gradientTransform="translate(3270.048 1955.122)" xlink:href="#a"/>
    <linearGradient id="e" x1="-2914.978" y1="-1887.304" x2="-2865.557" y2="-1887.304" gradientTransform="translate(3568.156 1955.122)" xlink:href="#a"/>
    <linearGradient id="f" x1="-142.853" y1="3211.829" x2="254.425" y2="3211.829" gradientTransform="translate(473.049 -2184.742)" xlink:href="#a"/>
    <linearGradient id="g" x1="-4413.825" y1="-3524.035" x2="-4364.404" y2="-3524.035" gradientTransform="translate(5067.003 4513.887)" xlink:href="#a"/>
    <linearGradient id="h" x1="-4562.878" y1="-3524.035" x2="-4513.457" y2="-3524.035" gradientTransform="translate(5067.003 4513.887)" xlink:href="#a"/>
    <linearGradient id="i" x1="-4711.932" y1="-3524.035" x2="-4662.511" y2="-3524.035" gradientTransform="translate(5067.003 4513.887)" xlink:href="#a"/>
    <linearGradient id="j" x1="-1156.552" y1="1890.069" x2="-851.022" y2="1890.069" gradientTransform="translate(1222.378 -1361.234)" xlink:href="#a"/>
    <linearGradient id="k" x1="-880.233" y1="3705.354" x2="-482.955" y2="3705.354" gradientTransform="translate(712.177 -3176.519)" xlink:href="#a"/>
    <linearGradient id="l" x1="-3676.444" y1="-4017.56" x2="-3627.023" y2="-4017.56" gradientTransform="translate(3719.551 4695.448)" xlink:href="#a"/>
    <linearGradient id="m" x1="-3825.497" y1="-4017.56" x2="-3776.076" y2="-4017.56" gradientTransform="translate(3868.604 4546.395)" xlink:href="#a"/>
    <linearGradient id="n" x1="-3974.551" y1="-4017.56" x2="-3925.13" y2="-4017.56" gradientTransform="translate(4017.658 4397.341)" xlink:href="#a"/>
    <linearGradient id="o" x1="-1156.552" y1="1181.09" x2="-851.022" y2="1181.09" gradientTransform="matrix(1, 0, 0, -1, 1842.865, 1709.925)" xlink:href="#a"/>
    <linearGradient id="p" x1="-880.233" y1="4414.333" x2="-482.955" y2="4414.333" gradientTransform="matrix(1, 0, 0, -1, 1708.682, 4943.168)" xlink:href="#a"/>
    <linearGradient id="q" x1="-3676.444" y1="-4726.539" x2="-3627.023" y2="-4726.539" gradientTransform="matrix(1, 0, 0, -1, 4641.586, -4048.65)" xlink:href="#a"/>
    <linearGradient id="r" x1="-3825.497" y1="-4726.539" x2="-3776.076" y2="-4726.539" gradientTransform="matrix(1, 0, 0, -1, 4790.639, -4197.704)" xlink:href="#a"/>
    <linearGradient id="s" x1="-3974.551" y1="-4726.539" x2="-3925.13" y2="-4726.539" gradientTransform="matrix(1, 0, 0, -1, 4939.693, -4346.757)" xlink:href="#a"/>
    <radialGradient id="t" cx="-675.343" cy="1299.399" r="215.512" gradientTransform="translate(1828.234 1204.178) rotate(90)" gradientUnits="userSpaceOnUse">
      <stop offset="0.798" stop-color="#474848"/>
      <stop offset="0.816" stop-color="#636363"/>
      <stop offset="0.822" stop-color="#5c5c5c"/>
      <stop offset="0.839" stop-color="#505050"/>
      <stop offset="0.856" stop-color="#4c4c4c"/>
      <stop offset="0.863" stop-color="#5b5b5b"/>
      <stop offset="0.877" stop-color="#838383"/>
      <stop offset="0.896" stop-color="#c4c4c4"/>
      <stop offset="0.903" stop-color="#dbdbdb"/>
      <stop offset="0.908" stop-color="#cdcdcd"/>
      <stop offset="0.929" stop-color="#939393"/>
      <stop offset="0.944" stop-color="#6f7070"/>
      <stop offset="0.952" stop-color="#616262"/>
      <stop offset="0.962" stop-color="#656666"/>
      <stop offset="0.973" stop-color="#727373"/>
      <stop offset="0.981" stop-color="#818281"/>
      <stop offset="0.994" stop-color="#474848"/>
      <stop offset="1" stop-color="#303232"/>
    </radialGradient>
    <linearGradient id="u" x1="-984.96" y1="2495.728" x2="-942.21" y2="2495.728" gradientTransform="translate(2974.945 -554.513) rotate(45)" xlink:href="#a"/>
    <linearGradient id="v" x1="285.719" y1="1467.138" x2="328.47" y2="1467.138" gradientTransform="translate(1783.425 1349.132) rotate(135)" xlink:href="#a"/>
    <linearGradient id="w" x1="-1741.168" y1="2021.558" x2="-1741.168" y2="2126.073" gradientTransform="translate(2270.003 -1544.516)" gradientUnits="userSpaceOnUse">
      <stop offset="0.488" stop-color="#dbdbdb"/>
      <stop offset="0.509" stop-color="#d1d1d1"/>
      <stop offset="0.687" stop-color="#818383"/>
      <stop offset="0.834" stop-color="#474949"/>
      <stop offset="0.943" stop-color="#232525"/>
      <stop offset="1" stop-color="#151818"/>
    </linearGradient>
    <linearGradient id="x" x1="-1741.168" y1="2005.786" x2="-1741.168" y2="2141.587" xlink:href="#a"/>
  </defs>
  <g>
    <g>
      <rect x="376.07" y="61.159" width="305.53" height="935.346" fill="url(#a)"/>
      <g>
        <g>
          <rect x="330.196" width="397.278" height="61.165" fill="url(#b)"/>
          <rect x="330.196" width="397.278" height="5.345" fill="#fff" opacity="0.49"/>
          <rect x="330.196" y="55.821" width="397.278" height="5.345" fill="#161616" opacity="0.49"/>
        </g>
        <g>
          <g>
            <rect x="355.071" y="61.165" width="49.421" height="13.304" transform="translate(759.563 135.635) rotate(180)" fill="url(#c)"/>
            <rect x="355.071" y="73.307" width="49.421" height="1.162" transform="translate(759.563 147.776) rotate(180)" fill="#161616" opacity="0.49"/>
            <rect x="355.071" y="61.165" width="49.421" height="1.162" transform="translate(759.563 123.493) rotate(180)" fill="#161616" opacity="0.49"/>
          </g>
          <g>
            <rect x="504.124" y="61.165" width="49.421" height="13.304" transform="translate(1057.67 135.635) rotate(180)" fill="url(#d)"/>
            <rect x="504.124" y="73.307" width="49.421" height="1.162" transform="translate(1057.67 147.776) rotate(180)" fill="#161616" opacity="0.49"/>
            <rect x="504.124" y="61.165" width="49.421" height="1.162" transform="translate(1057.67 123.493) rotate(180)" fill="#161616" opacity="0.49"/>
          </g>
          <g>
            <rect x="653.178" y="61.165" width="49.421" height="13.304" transform="translate(1355.777 135.635) rotate(180)" fill="url(#e)"/>
            <rect x="653.178" y="73.307" width="49.421" height="1.162" transform="translate(1355.777 147.776) rotate(180)" fill="#161616" opacity="0.49"/>
            <rect x="653.178" y="61.165" width="49.421" height="1.162" transform="translate(1355.777 123.493) rotate(180)" fill="#161616" opacity="0.49"/>
          </g>
        </g>
      </g>
      <g>
        <g>
          <rect x="330.196" y="996.505" width="397.278" height="61.165" transform="translate(1057.67 2054.174) rotate(180)" fill="url(#f)"/>
          <rect x="330.196" y="1052.325" width="397.278" height="5.345" transform="translate(1057.67 2109.995) rotate(180)" fill="#fff" opacity="0.49"/>
          <rect x="330.196" y="996.505" width="397.278" height="5.345" transform="translate(1057.67 1998.354) rotate(180)" fill="#161616" opacity="0.49"/>
        </g>
        <g>
          <g>
            <rect x="653.178" y="983.201" width="49.421" height="13.304" fill="url(#g)"/>
            <rect x="653.178" y="983.201" width="49.421" height="1.162" fill="#161616" opacity="0.49"/>
            <rect x="653.178" y="995.342" width="49.421" height="1.162" fill="#161616" opacity="0.49"/>
          </g>
          <g>
            <rect x="504.124" y="983.201" width="49.421" height="13.304" fill="url(#h)"/>
            <rect x="504.124" y="983.201" width="49.421" height="1.162" fill="#161616" opacity="0.49"/>
            <rect x="504.124" y="995.342" width="49.421" height="1.162" fill="#161616" opacity="0.49"/>
          </g>
          <g>
            <rect x="355.071" y="983.201" width="49.421" height="13.304" fill="url(#i)"/>
            <rect x="355.071" y="983.201" width="49.421" height="1.162" fill="#161616" opacity="0.49"/>
            <rect x="355.071" y="995.342" width="49.421" height="1.162" fill="#161616" opacity="0.49"/>
          </g>
        </g>
      </g>
    </g>
    <g>
      <rect x="65.827" y="371.356" width="305.53" height="314.957" transform="translate(747.426 310.243) rotate(90)" fill="url(#j)"/>
      <g>
        <g>
          <rect x="-168.056" y="498.252" width="397.278" height="61.165" transform="translate(-498.252 559.418) rotate(-90)" fill="url(#k)"/>
          <rect x="-195.967" y="526.163" width="397.278" height="5.345" transform="translate(-526.163 531.507) rotate(-90)" fill="#fff" opacity="0.49"/>
          <rect x="-140.146" y="526.163" width="397.278" height="5.345" transform="translate(-470.342 587.328) rotate(-90)" fill="#161616" opacity="0.49"/>
        </g>
        <g>
          <g>
            <rect x="43.107" y="671.236" width="49.421" height="13.304" transform="translate(745.706 610.071) rotate(90)" fill="url(#l)"/>
            <rect x="49.177" y="677.307" width="49.421" height="1.162" transform="translate(751.776 604) rotate(90)" fill="#161616" opacity="0.49"/>
            <rect x="37.036" y="677.307" width="49.421" height="1.162" transform="translate(739.635 616.142) rotate(90)" fill="#161616" opacity="0.49"/>
          </g>
          <g>
            <rect x="43.107" y="522.183" width="49.421" height="13.304" transform="translate(596.652 461.018) rotate(90)" fill="url(#m)"/>
            <rect x="49.177" y="528.254" width="49.421" height="1.162" transform="translate(602.723 454.947) rotate(90)" fill="#161616" opacity="0.49"/>
            <rect x="37.036" y="528.254" width="49.421" height="1.162" transform="translate(590.582 467.088) rotate(90)" fill="#161616" opacity="0.49"/>
          </g>
          <g>
            <rect x="43.107" y="373.129" width="49.421" height="13.304" transform="translate(447.599 311.964) rotate(90)" fill="url(#n)"/>
            <rect x="49.177" y="379.2" width="49.421" height="1.162" transform="translate(453.67 305.893) rotate(90)" fill="#161616" opacity="0.49"/>
            <rect x="37.036" y="379.2" width="49.421" height="1.162" transform="translate(441.528 318.035) rotate(90)" fill="#161616" opacity="0.49"/>
          </g>
        </g>
      </g>
    </g>
    <g>
      <rect x="686.313" y="371.356" width="305.53" height="314.957" transform="translate(1367.913 -310.243) rotate(90)" fill="url(#o)"/>
      <g>
        <g>
          <rect x="828.448" y="498.252" width="397.278" height="61.165" transform="translate(498.252 1555.922) rotate(-90)" fill="url(#p)"/>
          <rect x="856.359" y="526.163" width="397.278" height="5.345" transform="translate(526.163 1583.832) rotate(-90)" fill="#fff" opacity="0.49"/>
          <rect x="800.538" y="526.163" width="397.278" height="5.345" transform="translate(470.342 1528.012) rotate(-90)" fill="#161616" opacity="0.49"/>
        </g>
        <g>
          <g>
            <rect x="965.142" y="671.236" width="49.421" height="13.304" transform="translate(1667.741 -311.964) rotate(90)" fill="url(#q)"/>
            <rect x="959.071" y="677.307" width="49.421" height="1.162" transform="translate(1661.67 -305.893) rotate(90)" fill="#161616" opacity="0.49"/>
            <rect x="971.213" y="677.307" width="49.421" height="1.162" transform="translate(1673.812 -318.035) rotate(90)" fill="#161616" opacity="0.49"/>
          </g>
          <g>
            <rect x="965.142" y="522.183" width="49.421" height="13.304" transform="translate(1518.687 -461.018) rotate(90)" fill="url(#r)"/>
            <rect x="959.071" y="528.254" width="49.421" height="1.162" transform="translate(1512.617 -454.947) rotate(90)" fill="#161616" opacity="0.49"/>
            <rect x="971.213" y="528.254" width="49.421" height="1.162" transform="translate(1524.758 -467.088) rotate(90)" fill="#161616" opacity="0.49"/>
          </g>
          <g>
            <rect x="965.142" y="373.129" width="49.421" height="13.304" transform="translate(1369.634 -610.071) rotate(90)" fill="url(#s)"/>
            <rect x="959.071" y="379.2" width="49.421" height="1.162" transform="translate(1363.563 -604) rotate(90)" fill="#161616" opacity="0.49"/>
            <rect x="971.213" y="379.2" width="49.421" height="1.162" transform="translate(1375.705 -616.142) rotate(90)" fill="#161616" opacity="0.49"/>
          </g>
        </g>
      </g>
    </g>
    <g>
      <path d="M594.612,501.045a71.6,71.6,0,1,0,5.613,27.79A71.144,71.144,0,0,0,594.612,501.045Z" opacity="0.49"/>
      <path d="M376.445,681.225a214.9,214.9,0,1,1,71.3,47.34A214.186,214.186,0,0,1,376.445,681.225ZM650.487,407.183c-67.079-67.079-176.225-67.079-243.3,0s-67.079,176.225,0,243.3,176.225,67.079,243.3,0S717.566,474.262,650.487,407.183Z" fill="url(#t)"/>
      <path d="M653.949,403.781c-8.347-8.347-16.241-13.988-17.63-12.6L391.183,636.319c-1.39,1.389,4.251,9.283,12.6,17.63s16.241,13.988,17.631,12.6L666.548,421.412C667.937,420.022,662.3,412.129,653.949,403.781Z" fill="url(#u)"/>
      <path d="M653.949,653.949c8.348-8.347,13.988-16.241,12.6-17.63L421.412,391.183c-1.39-1.39-9.283,4.251-17.631,12.6s-13.988,16.241-12.6,17.631L636.319,666.548C637.708,667.937,645.6,662.3,653.949,653.949Z" fill="url(#v)"/>
      <path d="M576.556,508.673a51.951,51.951,0,1,0,4.072,20.162A51.616,51.616,0,0,0,576.556,508.673Z" fill="url(#w)"/>
      <path d="M575.069,509.3a50.335,50.335,0,1,0,3.945,19.534A50.008,50.008,0,0,0,575.069,509.3Z" fill="url(#x)"/>
      <path d="M554.408,518.03a27.844,27.844,0,1,0,2.182,10.805A27.661,27.661,0,0,0,554.408,518.03Z" fill="#474848"/>
    </g>
  </g>
</svg>
