<svg xmlns="http://www.w3.org/2000/svg" xmlns:xlink="http://www.w3.org/1999/xlink" width="966.975" height="967.569" viewBox="0 0 966.975 967.569">
  <defs>
    <linearGradient id="a" x1="45.874" y1="476.254" x2="351.404" y2="476.254" gradientUnits="userSpaceOnUse">
      <stop offset="0" stop-color="#474848"/>
      <stop offset="0.089" stop-color="#636363"/>
      <stop offset="0.113" stop-color="#5c5c5c"/>
      <stop offset="0.178" stop-color="#505050"/>
      <stop offset="0.241" stop-color="#4c4c4c"/>
      <stop offset="0.277" stop-color="#595959"/>
      <stop offset="0.344" stop-color="#7d7d7d"/>
      <stop offset="0.435" stop-color="#b6b6b6"/>
      <stop offset="0.488" stop-color="#dbdbdb"/>
      <stop offset="0.509" stop-color="#cdcdcd"/>
      <stop offset="0.603" stop-color="#939393"/>
      <stop offset="0.673" stop-color="#6f7070"/>
      <stop offset="0.71" stop-color="#616262"/>
      <stop offset="0.763" stop-color="#656666"/>
      <stop offset="0.822" stop-color="#727373"/>
      <stop offset="0.865" stop-color="#818281"/>
      <stop offset="0.886" stop-color="#7b7c7b"/>
      <stop offset="0.915" stop-color="#6a6c6b"/>
      <stop offset="0.949" stop-color="#4e5050"/>
      <stop offset="0.985" stop-color="#282a2a"/>
      <stop offset="1" stop-color="#151818"/>
    </linearGradient>
    <linearGradient id="b" x1="-835.081" y1="2434.32" x2="-529.551" y2="2434.32" gradientTransform="translate(2910.574 880.955) rotate(90)" xlink:href="#a"/>
    <linearGradient id="c" x1="547.871" y1="3300.139" x2="945.149" y2="3300.139" gradientTransform="translate(189.882 -3101.5)" xlink:href="#a"/>
    <linearGradient id="d" x1="1365.234" y1="-2615.714" x2="1414.656" y2="-2615.714" gradientTransform="translate(-490.788 2665.299)" xlink:href="#a"/>
    <linearGradient id="e" x1="1216.181" y1="-2615.714" x2="1265.602" y2="-2615.714" gradientTransform="translate(-341.734 2814.353)" xlink:href="#a"/>
    <linearGradient id="f" x1="1067.127" y1="-2615.714" x2="1116.549" y2="-2615.714" gradientTransform="translate(-192.681 2963.406)" xlink:href="#a"/>
    <linearGradient id="g" x1="3268.908" y1="5910.536" x2="3666.186" y2="5910.536" gradientTransform="translate(-3268.908 -4973.549)" xlink:href="#a"/>
    <linearGradient id="h" x1="-1355.802" y1="-5226.111" x2="-1306.381" y2="-5226.111" gradientTransform="translate(1678.784 6125.863)" xlink:href="#a"/>
    <linearGradient id="i" x1="-1504.856" y1="-5226.111" x2="-1455.435" y2="-5226.111" gradientTransform="translate(1678.784 6125.863)" xlink:href="#a"/>
    <linearGradient id="j" x1="-1653.909" y1="-5226.111" x2="-1604.488" y2="-5226.111" gradientTransform="translate(1678.784 6125.863)" xlink:href="#a"/>
  </defs>
  <g>
    <polygon points="351.404 906.634 45.874 906.634 45.874 45.874 351.404 351.404 351.404 906.634" fill="url(#a)"/>
    <polygon points="351.404 351.404 45.874 45.874 906.634 45.874 906.634 351.404 351.404 351.404" fill="url(#b)"/>
    <g>
      <g>
        <rect x="737.753" y="168.056" width="397.278" height="61.165" transform="translate(1135.031 -737.753) rotate(90)" fill="url(#c)"/>
        <rect x="765.663" y="195.967" width="397.278" height="5.345" transform="translate(1162.941 -765.663) rotate(90)" fill="#fff" opacity="0.49"/>
        <rect x="709.843" y="195.967" width="397.278" height="5.345" transform="translate(1107.121 -709.843) rotate(90)" fill="#161616" opacity="0.49"/>
      </g>
      <g>
        <g>
          <rect x="874.447" y="42.934" width="49.421" height="13.304" transform="translate(849.572 948.743) rotate(-90)" fill="url(#d)"/>
          <rect x="868.376" y="49.004" width="49.421" height="1.163" transform="translate(843.501 942.672) rotate(-90)" fill="#161616" opacity="0.49"/>
          <rect x="880.517" y="49.004" width="49.421" height="1.162" transform="translate(855.643 954.814) rotate(-90)" fill="#161616" opacity="0.49"/>
        </g>
        <g>
          <rect x="874.447" y="191.987" width="49.421" height="13.304" transform="translate(700.518 1097.796) rotate(-90)" fill="url(#e)"/>
          <rect x="868.376" y="198.058" width="49.421" height="1.163" transform="translate(694.448 1091.726) rotate(-90)" fill="#161616" opacity="0.49"/>
          <rect x="880.517" y="198.058" width="49.421" height="1.162" transform="translate(706.589 1103.867) rotate(-90)" fill="#161616" opacity="0.49"/>
        </g>
        <g>
          <rect x="874.447" y="341.04" width="49.421" height="13.304" transform="translate(551.465 1246.85) rotate(-90)" fill="url(#f)"/>
          <rect x="868.376" y="347.111" width="49.421" height="1.163" transform="translate(545.394 1240.779) rotate(-90)" fill="#161616" opacity="0.49"/>
          <rect x="880.517" y="347.111" width="49.421" height="1.162" transform="translate(557.536 1252.921) rotate(-90)" fill="#161616" opacity="0.49"/>
        </g>
      </g>
    </g>
    <g>
      <g>
        <rect y="906.404" width="397.278" height="61.165" transform="translate(397.278 1873.973) rotate(180)" fill="url(#g)"/>
        <rect y="962.224" width="397.278" height="5.345" transform="translate(397.278 1929.793) rotate(180)" fill="#fff" opacity="0.49"/>
        <rect y="906.404" width="397.278" height="5.345" transform="translate(397.278 1818.152) rotate(180)" fill="#161616" opacity="0.49"/>
      </g>
      <g>
        <g>
          <rect x="322.982" y="893.1" width="49.421" height="13.304" fill="url(#h)"/>
          <rect x="322.982" y="893.1" width="49.421" height="1.162" fill="#161616" opacity="0.49"/>
          <rect x="322.982" y="905.241" width="49.421" height="1.162" fill="#161616" opacity="0.49"/>
        </g>
        <g>
          <rect x="173.928" y="893.1" width="49.421" height="13.304" fill="url(#i)"/>
          <rect x="173.928" y="893.1" width="49.421" height="1.162" fill="#161616" opacity="0.49"/>
          <rect x="173.928" y="905.241" width="49.421" height="1.162" fill="#161616" opacity="0.49"/>
        </g>
        <g>
          <rect x="24.875" y="893.1" width="49.421" height="13.304" fill="url(#j)"/>
          <rect x="24.875" y="893.1" width="49.421" height="1.162" fill="#161616" opacity="0.49"/>
          <rect x="24.875" y="905.241" width="49.421" height="1.162" fill="#161616" opacity="0.49"/>
        </g>
      </g>
    </g>
  </g>
</svg>
